<svg width="160" height="77" viewBox="0 0 160 77" fill="none" xmlns="http://www.w3.org/2000/svg">
<path d="M47.992 6.56L49.876 6.26C50.908 6.092 51.34 6.02 51.76 5.924L51.928 6.956C51.544 6.992 50.98 7.052 50.032 7.208L48.148 7.508L48.328 8.588C48.472 9.488 48.616 10.412 48.796 11.324L47.692 11.516C47.584 10.568 47.452 9.62 47.308 8.696L47.14 7.664L45.04 8C44.224 8.132 43.888 8.204 43.156 8.336L42.988 7.316C43.684 7.232 44.128 7.184 44.884 7.064L46.996 6.728L46.72 4.916L45.22 5.156C44.668 5.24 44.116 5.336 43.564 5.444L43.408 4.46C43.912 4.412 44.356 4.352 45.064 4.244L46.576 4.004L46.48 3.404C46.336 2.504 46.276 2.132 46.144 1.556L47.26 1.508H47.284C47.404 1.508 47.464 1.544 47.464 1.628C47.464 1.688 47.428 1.736 47.284 1.856C47.356 2.36 47.404 2.72 47.5 3.368L47.572 3.836L49.072 3.596C49.768 3.488 50.164 3.416 50.716 3.308L50.884 4.292C50.164 4.388 49.816 4.424 49.216 4.52L47.716 4.76L47.992 6.56ZM58.852 7.148L57.94 7.616C57.508 6.608 57.28 6.212 56.74 5.54L57.52 5.036C58.024 5.54 58.552 6.452 58.852 7.148ZM63.04 4.472L63.976 4.904C64.084 4.952 64.132 5 64.132 5.084C64.132 5.18 64.072 5.24 63.88 5.3C63.196 7.328 62.548 8.42 61.504 9.428C60.604 10.292 59.836 10.772 58.12 11.528C58.024 11.3 57.844 11.012 57.592 10.676C58.936 10.184 59.752 9.704 60.592 8.96C61.504 8.156 62.188 7.148 62.632 5.864C62.776 5.432 62.908 5.036 63.04 4.472ZM58.996 4.604L59.824 4.196C60.28 4.796 60.688 5.768 60.892 6.428L59.932 6.776C59.596 5.66 59.548 5.552 58.996 4.604ZM75.028 4.112L73.384 4.232C71.392 4.376 70.672 4.436 69.784 4.508L69.676 3.416C70.708 3.404 72.064 3.38 73.312 3.296L75.412 3.164L75.592 2.948L76.384 3.632C76.468 3.704 76.504 3.752 76.504 3.812C76.504 3.908 76.468 3.932 76.216 3.992C75.58 5.216 75.16 5.828 74.488 6.56C75.784 7.496 76.828 8.54 77.74 9.812L76.864 10.544C75.832 9.056 75.136 8.312 73.84 7.28C72.508 8.684 71.212 9.572 69.1 10.556C68.92 10.136 68.812 9.968 68.524 9.644C70.852 8.624 71.968 7.82 73.348 6.38C73.996 5.708 74.464 5.096 75.028 4.112ZM75.82 2.156L76.312 1.664C76.924 2.12 77.308 2.432 77.92 3.104L77.356 3.62C76.792 2.936 76.456 2.624 75.82 2.156ZM76.792 1.208L77.284 0.74C77.896 1.196 78.28 1.496 78.892 2.156L78.34 2.684C77.8 2.012 77.44 1.7 76.792 1.208ZM87.988 4.112L86.344 4.232C84.352 4.376 83.632 4.436 82.744 4.508L82.636 3.416C83.668 3.404 85.024 3.38 86.272 3.296L88.372 3.164L88.552 2.948L89.344 3.632C89.428 3.704 89.464 3.752 89.464 3.812C89.464 3.908 89.428 3.932 89.176 3.992C88.54 5.216 88.12 5.828 87.448 6.56C88.744 7.496 89.788 8.54 90.7 9.812L89.824 10.544C88.792 9.056 88.096 8.312 86.8 7.28C85.468 8.684 84.172 9.572 82.06 10.556C81.88 10.136 81.772 9.968 81.484 9.644C83.812 8.624 84.928 7.82 86.308 6.38C86.956 5.708 87.424 5.096 87.988 4.112ZM100.108 4.988L100.288 5.012C100.432 5.036 100.492 5.084 100.492 5.156C100.492 5.228 100.432 5.276 100.252 5.384C100.24 5.96 100.24 6.104 100.24 7.1V9.512C100.252 11.156 100.252 11.156 100.264 11.612H99.112C99.16 11.096 99.172 10.436 99.172 9.512V7.1C99.172 6.704 99.172 6.404 99.16 5.912C97.72 7.232 97.024 7.76 95.344 8.816C95.116 8.408 95.008 8.264 94.708 7.964C97.456 6.332 99.268 4.664 100.624 2.804C100.912 2.408 101.188 2.048 101.38 1.568L102.352 2C102.436 2.036 102.484 2.084 102.484 2.156C102.484 2.24 102.424 2.288 102.22 2.36C101.524 3.392 100.768 4.34 100.108 4.988ZM116.812 10.004L115.756 10.544C115.492 9.908 115.384 9.644 115.156 9.188C112.9 9.584 110.872 9.86 108.28 10.16C108.184 10.316 108.136 10.364 108.064 10.364C107.992 10.364 107.944 10.304 107.884 10.136L107.5 9.044C108.244 9.032 108.736 9.02 109.36 8.984C109.816 8.012 110.464 6.248 111.04 4.484C111.292 3.74 111.436 3.224 111.58 2.444L112.744 2.912C112.876 2.96 112.912 2.996 112.912 3.08C112.912 3.188 112.876 3.188 112.588 3.308C111.94 5.204 111.508 6.476 110.404 8.912C111.928 8.78 113.344 8.6 114.7 8.384C114.16 7.496 113.812 7.016 113.344 6.524L114.112 5.972C115.156 7.052 116.056 8.384 116.812 10.004Z" fill="white"/>
<g clip-path="url(#clip0_1391_12533)">
<path d="M61.2041 28.126L59.3711 32.326V28.126H58.1331V38.165H59.3701V34.665L59.8431 33.565L61.2721 38.165H62.6221L60.5751 32.274L62.5421 28.126H61.2041Z" fill="white"/>
<path d="M63.509 28.127H64.746V38.166H63.509V28.127Z" fill="white"/>
<path d="M66.467 28.1269H68.357C70.057 28.0849 70.741 28.9569 70.719 31.1079V35.1859C70.753 37.3369 70.055 38.2089 68.357 38.1669H66.467V28.1269ZM68.391 36.9149C69.246 36.9149 69.471 36.4929 69.482 34.9149V31.3709C69.471 29.7959 69.246 29.3709 68.391 29.3709H67.705V36.9149H68.391Z" fill="white"/>
<path d="M73.025 35.2001C73.025 36.4941 73.306 37.0421 73.959 37.0421C74.612 37.0421 74.892 36.5361 74.892 35.3971C74.9261 35.0057 74.8399 34.6132 74.645 34.2721C74.465 34.0331 74.409 33.9911 73.666 33.6811C73.1093 33.4653 72.6425 33.0666 72.3421 32.5506C72.0418 32.0346 71.9257 31.4318 72.013 30.8411C72.012 29.0001 72.683 28.0001 73.925 28.0001C74.3169 27.9881 74.7015 28.1077 75.0175 28.3396C75.3336 28.5716 75.5629 28.9027 75.669 29.2801C75.8442 29.8148 75.9204 30.377 75.894 30.9391H74.758C74.724 29.7021 74.511 29.2661 73.958 29.2661C73.452 29.2661 73.193 29.7861 73.193 30.7661C73.1508 31.1252 73.2356 31.4879 73.4329 31.7909C73.6302 32.094 73.9275 32.3184 74.273 32.4251C74.7421 32.5641 75.1654 32.8262 75.499 33.1841C75.9476 33.8011 76.152 34.5623 76.073 35.3211C76.073 37.2901 75.365 38.3021 73.981 38.3021C73.5719 38.3229 73.1676 38.207 72.8315 37.9728C72.4955 37.7385 72.247 37.3991 72.125 37.0081C71.9361 36.4229 71.8562 35.8081 71.889 35.1941L73.025 35.2001Z" fill="white"/>
<path d="M80.3131 35.2001C80.3131 36.4941 80.5941 37.0421 81.2471 37.0421C81.9001 37.0421 82.1811 36.5361 82.1811 35.3971C82.2152 35.0057 82.129 34.6132 81.9341 34.2721C81.7541 34.0331 81.6981 33.9911 80.9551 33.6811C80.3982 33.4654 79.9313 33.0668 79.6309 32.5507C79.3305 32.0346 79.2146 31.4318 79.3021 30.8411C79.3011 29.0001 79.9761 28.0001 81.2131 28.0001C81.6048 27.9882 81.9892 28.1077 82.3051 28.3397C82.621 28.5717 82.8502 28.9027 82.9561 29.2801C83.1312 29.8148 83.2075 30.377 83.1811 30.9391H82.0451C82.0111 29.7021 81.7981 29.2661 81.2451 29.2661C80.7391 29.2661 80.4801 29.7861 80.4801 30.7661C80.4378 31.1252 80.5227 31.4879 80.72 31.7909C80.9173 32.094 81.2145 32.3184 81.5601 32.4251C82.0292 32.5639 82.4526 32.826 82.7861 33.1841C83.2347 33.8011 83.4392 34.5623 83.3601 35.3211C83.3601 37.2901 82.6521 38.3021 81.2681 38.3021C80.859 38.3227 80.4547 38.2068 80.1187 37.9725C79.7828 37.7383 79.5342 37.399 79.4121 37.0081C79.2234 36.4229 79.1434 35.8081 79.1761 35.1941L80.3131 35.2001Z" fill="white"/>
<path d="M84.272 28.127H85.498L86.24 35.369L87.432 28.127H88.377L89.57 35.366L90.312 28.124H91.538L90.199 38.166H89.085L87.904 31.166L86.723 38.166H85.609L84.272 28.127Z" fill="white"/>
<path d="M92.787 28.127H94.024V38.167H92.787V28.127Z" fill="white"/>
<path d="M95.745 28.127H96.903L98.403 33.892L99.903 28.127H101.062V38.166H99.878V31.6L98.798 36.058H98.011L96.931 31.6V38.166H95.75L95.745 28.127Z" fill="white"/>
<path d="M3.70002 60.017C3.08402 60.017 3.02002 60.0491 3.02002 60.4381C2.98032 61.108 3.07705 61.7791 3.30435 62.4105C3.53165 63.042 3.8848 63.6208 4.34238 64.1117C4.79996 64.6027 5.35246 64.9956 5.9664 65.2668C6.58033 65.5379 7.24293 65.6816 7.91402 65.6891C8.53174 65.7318 9.14927 65.6031 9.69843 65.317C10.2476 65.031 10.707 64.5988 11.026 64.0681C11.1894 64.0424 11.3562 64.0827 11.4899 64.18C11.6236 64.2773 11.7132 64.4237 11.739 64.5871C11.2854 65.6598 10.5215 66.5725 9.54542 67.2079C8.56932 67.8433 7.42556 68.1724 6.26102 68.1531C5.41407 68.1741 4.57198 68.019 3.78806 67.6977C3.00414 67.3764 2.29547 66.8958 1.70693 66.2864C1.11838 65.677 0.662775 64.952 0.368958 64.1574C0.0751405 63.3627 -0.050489 62.5158 2.34302e-05 61.67C2.34302e-05 58.007 2.50002 54.4701 6.83902 54.4701C9.23902 54.4701 11.701 56.0261 11.701 58.8461C11.7132 59.1046 11.6574 59.3618 11.539 59.5921C11.344 59.8831 10.599 60.0131 9.30202 60.0131L3.70002 60.017ZM6.68202 58.7171C7.22188 58.7687 7.76627 58.6909 8.27002 58.4901C8.37489 58.411 8.45912 58.3079 8.51553 58.1893C8.57194 58.0707 8.59887 57.9403 8.59402 57.8091C8.60943 57.5253 8.56419 57.2415 8.46132 56.9766C8.35845 56.7118 8.20032 56.4718 7.99746 56.2728C7.7946 56.0739 7.55166 55.9204 7.28483 55.8227C7.01801 55.7249 6.73342 55.6852 6.45002 55.7061C5.67949 55.7299 4.94125 56.021 4.36181 56.5295C3.78237 57.038 3.39781 57.7322 3.27402 58.4931C3.27402 58.6231 3.33902 58.7201 3.72802 58.7201L6.68202 58.7171ZM6.06102 53.2421C5.63902 53.2751 5.34802 53.1121 5.28302 52.7561L8.03802 46.8891C8.39502 46.1431 8.75102 45.8521 9.03802 45.8521C9.4906 45.9009 9.91893 46.0813 10.27 46.3711C10.821 46.7601 11.016 47.0191 11.016 47.4081C11.016 47.7971 10.627 48.1531 10.238 48.6081L6.06102 53.2421Z" fill="white"/>
<path d="M13.841 67.1149C13.447 65.9364 13.2927 64.691 13.387 63.4519C13.5007 63.3259 13.6587 63.2488 13.8279 63.2367C13.9972 63.2246 14.1646 63.2784 14.295 63.3869C14.878 65.2019 16.078 66.9199 17.795 66.9199C18.0364 66.9313 18.2775 66.8922 18.5029 66.805C18.7282 66.7178 18.9329 66.5845 19.1038 66.4137C19.2746 66.2428 19.4079 66.0381 19.4951 65.8128C19.5823 65.5874 19.6214 65.3463 19.61 65.1049C19.61 63.9049 18.54 63.1279 17.41 62.5759C15.724 61.7659 13.974 60.5659 13.974 58.4919C13.942 55.9639 16.113 54.4729 18.804 54.4729C19.8445 54.4641 20.874 54.6854 21.819 55.1209C22.2024 56.1225 22.3681 57.1943 22.305 58.2649C22.2073 58.3983 22.0623 58.4894 21.8996 58.5195C21.737 58.5496 21.569 58.5165 21.43 58.4269C20.944 56.9359 19.906 55.7039 18.642 55.7039C18.4114 55.6921 18.1808 55.7266 17.9638 55.8055C17.7468 55.8843 17.5478 56.0059 17.3786 56.163C17.2093 56.3201 17.0733 56.5095 16.9786 56.7201C16.8839 56.9306 16.8323 57.1581 16.827 57.3889C16.827 58.3289 17.767 59.0099 18.999 59.5889C20.749 60.4319 22.599 61.5339 22.599 64.0939C22.599 66.9139 20.099 68.1459 17.542 68.1459C16.229 68.209 14.931 67.8451 13.842 67.1089" fill="white"/>
<path d="M31.054 56.451C30.373 56.451 30.373 56.516 30.373 57.451V63.839C30.373 66.239 30.503 66.594 31.637 66.724L32.901 66.854C33.128 67.081 33.095 67.664 32.836 67.794C31.4217 67.7274 30.0059 67.694 28.59 67.694C27.52 67.694 26.418 67.727 25.09 67.794C24.831 67.664 24.798 67.081 25.025 66.854L25.738 66.754C26.838 66.592 26.97 66.235 26.97 63.837V57.424C26.97 56.549 26.937 56.452 26.386 56.452H25.219C25.1562 56.4155 25.1025 56.3651 25.0621 56.3047C25.0218 56.2443 24.9958 56.1755 24.9861 56.1035C24.9765 56.0315 24.9834 55.9582 25.0064 55.8893C25.0295 55.8204 25.068 55.7577 25.119 55.706L26.513 54.993C26.6494 54.9305 26.7647 54.83 26.8453 54.7035C26.9258 54.577 26.9681 54.4299 26.967 54.28V53.697C26.9407 52.1252 27.1707 50.5597 27.648 49.062C28.0298 47.7507 28.8273 46.5989 29.9205 45.7803C31.0137 44.9616 32.3433 44.5203 33.709 44.523C35.946 44.523 37.409 45.523 37.409 46.889C37.3976 47.3037 37.2255 47.6979 36.9291 47.9882C36.6326 48.2785 36.2349 48.4423 35.82 48.445C35.6375 48.4563 35.4552 48.4205 35.2906 48.341C35.1259 48.2615 34.9845 48.141 34.88 47.991C33.843 46.5 33.13 45.852 32.352 45.852C31.252 45.852 30.375 48.052 30.375 52.918V53.891C30.375 54.863 30.408 54.928 31.088 54.928H34.488C34.5573 54.9943 34.6108 55.0754 34.6444 55.1653C34.678 55.2551 34.6908 55.3514 34.682 55.447C34.7035 55.6391 34.6727 55.8335 34.5928 56.0095C34.5129 56.1856 34.3868 56.3367 34.228 56.447L31.054 56.451Z" fill="white"/>
<path d="M48.816 61.151C48.816 65.751 45.575 68.151 41.716 68.151C37.988 68.151 34.877 65.785 34.877 61.538C34.8523 60.6005 35.0194 59.6678 35.3679 58.7971C35.7164 57.9264 36.239 57.136 36.9038 56.4745C37.5685 55.8129 38.3614 55.294 39.2338 54.9497C40.1061 54.6054 41.0396 54.4428 41.977 54.472C42.8736 54.4257 43.77 54.5655 44.61 54.8825C45.4499 55.1996 46.2151 55.687 46.8575 56.3141C47.4999 56.9413 48.0055 57.6946 48.3425 58.5267C48.6796 59.3588 48.8408 60.2516 48.816 61.149M42.106 66.849C44.343 66.849 44.991 64.191 44.991 61.695C44.991 58.972 44.051 55.763 41.652 55.763C39.999 55.763 38.702 57.449 38.702 61.046C38.702 63.996 39.772 66.846 42.102 66.846" fill="white"/>
<path d="M52.058 59.078C52.058 57.619 52.058 57.23 51.248 56.744L50.859 56.517C50.8084 56.3981 50.785 56.2694 50.7908 56.1403C50.7965 56.0112 50.8311 55.885 50.892 55.771C52.3065 55.3206 53.6742 54.7345 54.976 54.021C55.0728 54.0155 55.1689 54.0408 55.2505 54.0932C55.332 54.1457 55.3949 54.2226 55.43 54.313C55.397 54.929 55.365 55.48 55.365 55.772C55.365 55.999 55.495 56.161 55.689 56.161C56.689 55.448 57.764 54.475 58.866 54.475C59.0892 54.4532 59.3145 54.4778 59.5278 54.5473C59.741 54.6167 59.9376 54.7296 60.105 54.8788C60.2725 55.028 60.4073 55.2102 60.5009 55.414C60.5946 55.6178 60.645 55.8388 60.649 56.063C60.6621 56.3078 60.6246 56.5527 60.5389 56.7824C60.4532 57.0121 60.321 57.2217 60.1507 57.3981C59.9805 57.5745 59.7757 57.7139 59.5491 57.8077C59.3226 57.9014 59.0791 57.9475 58.834 57.943C58.5236 57.9416 58.2201 57.8518 57.959 57.684C57.511 57.3323 56.9704 57.1183 56.403 57.068C55.658 57.068 55.463 57.814 55.463 59.402V63.843C55.463 66.243 55.593 66.598 56.727 66.728L57.991 66.858C58.218 67.085 58.185 67.668 57.926 67.798C55.981 67.733 54.879 67.698 53.68 67.698C52.61 67.698 51.541 67.731 50.309 67.798C50.05 67.668 50.017 67.085 50.244 66.858L50.828 66.758C51.928 66.563 52.06 66.239 52.06 63.841L52.058 59.078Z" fill="white"/>
<path d="M67.228 56.3541C66.645 56.3541 66.612 56.4191 66.612 57.4541V62.4461C66.612 64.4881 66.904 66.3031 68.978 66.3031C69.548 66.2919 70.097 66.0862 70.534 65.7201C70.6069 65.7295 70.6769 65.7546 70.7392 65.7938C70.8014 65.8329 70.8544 65.8851 70.8944 65.9467C70.9345 66.0084 70.9606 66.078 70.9711 66.1507C70.9816 66.2235 70.9761 66.2977 70.955 66.3681C70.4505 66.96 69.8171 67.4284 69.1035 67.7375C68.3898 68.0465 67.6149 68.188 66.838 68.1511C63.759 68.1511 63.208 66.3681 63.208 64.0991V57.5191C63.208 56.3841 63.143 56.3521 62.625 56.3521H61.49C61.4136 56.3113 61.3482 56.2526 61.2995 56.1809C61.2508 56.1093 61.2202 56.0269 61.2104 55.9408C61.2005 55.8548 61.2117 55.7676 61.243 55.6868C61.2743 55.606 61.3248 55.5341 61.39 55.4771C62.3029 55.1448 63.1648 54.6867 63.951 54.1161C64.6883 53.588 65.2976 52.9011 65.734 52.1061C65.8788 52.0165 66.0515 51.9835 66.219 52.0134C66.3866 52.0433 66.5372 52.134 66.642 52.2681V54.2131C66.642 54.7321 66.642 54.8291 67.258 54.8291H70.467C70.661 54.9291 70.726 55.1861 70.726 55.5101C70.7286 55.6741 70.6916 55.8362 70.6184 55.983C70.5451 56.1297 70.4376 56.2566 70.305 56.3531L67.228 56.3541Z" fill="white"/>
<path d="M82.658 63.583C82.558 65.463 83.047 66.435 84.214 66.435C84.6004 66.3889 84.9741 66.2676 85.314 66.078C85.476 66.078 85.703 66.435 85.606 66.726C85.1911 67.1719 84.6896 67.5284 84.1321 67.7736C83.5747 68.0188 82.973 68.1476 82.364 68.152C81.9332 68.1713 81.5031 68.1005 81.1012 67.9442C80.6993 67.7878 80.3344 67.5493 80.03 67.244C79.803 67.017 79.674 66.855 79.511 66.855C79.348 66.855 79.122 67.017 78.636 67.309C77.8146 67.8423 76.8601 68.1344 75.8809 68.152C75.4521 68.185 75.0211 68.1277 74.6159 67.9835C74.2107 67.8394 73.8402 67.6118 73.5285 67.3154C73.2169 67.019 72.9709 66.6605 72.8067 66.263C72.6424 65.8655 72.5635 65.4379 72.5749 65.008C72.5749 63.841 73.029 62.771 75.266 61.994C76.4 61.605 77.632 61.151 78.831 60.694C79.479 60.467 79.577 60.175 79.577 59.851L79.609 59.008C79.674 57.355 79.22 55.929 77.632 55.929C77.2157 55.8935 76.8022 56.0232 76.4808 56.29C76.1594 56.5568 75.9558 56.9393 75.914 57.355C75.9164 57.5854 75.8613 57.8127 75.7538 58.0165C75.6462 58.2202 75.4895 58.394 75.2979 58.522C74.6647 58.8829 73.9526 59.0831 73.224 59.105C72.803 59.105 72.608 58.878 72.608 58.587C72.608 58.198 72.803 57.517 73.872 56.512C75.2844 55.3309 77.0287 54.6174 78.864 54.47C81.425 54.47 83.013 55.67 82.883 58.522L82.658 63.583ZM79.481 62.483C79.481 62.126 79.381 61.932 79.222 61.932C78.7308 61.9943 78.2507 62.1252 77.796 62.321C77.2922 62.4128 76.8383 62.6827 76.517 63.0815C76.1957 63.4802 76.0285 63.9812 76.046 64.493C76.0375 64.7367 76.0782 64.9796 76.1656 65.2072C76.253 65.4348 76.3853 65.6426 76.5546 65.818C76.724 65.9934 76.9269 66.133 77.1514 66.2283C77.3758 66.3237 77.6171 66.3729 77.861 66.373C78.0697 66.3904 78.2797 66.3621 78.4764 66.2901C78.6731 66.2181 78.8518 66.104 78.9999 65.9559C79.148 65.8078 79.2621 65.6292 79.3341 65.4325C79.4061 65.2358 79.4344 65.0257 79.417 64.817L79.481 62.483Z" fill="white"/>
<path d="M90.373 59.078C90.373 57.619 90.405 57.3281 89.563 56.7781L89.174 56.519C89.1073 56.4047 89.0749 56.2735 89.0807 56.1412C89.0866 56.0089 89.1304 55.8811 89.207 55.7731C90.6884 55.3205 92.1049 54.6778 93.421 53.8611C93.5309 53.8522 93.6406 53.8789 93.7341 53.9372C93.8276 53.9956 93.8998 54.0825 93.94 54.1851C93.8557 54.6019 93.8015 55.0244 93.778 55.4491C93.7689 55.5379 93.7893 55.6274 93.8361 55.7035C93.8829 55.7796 93.9535 55.8382 94.037 55.8701C95.2586 55.1169 96.6305 54.641 98.056 54.4761C101.589 54.4761 103.631 57.1341 103.631 60.4761C103.631 64.9811 100.454 68.1581 95.69 68.1581C95.2121 68.1515 94.7353 68.108 94.264 68.0281C93.973 68.0931 93.778 68.2871 93.778 68.9361V72.1131C93.778 74.5131 93.908 74.8681 95.042 74.9981L96.209 75.128C96.436 75.355 96.403 75.9391 96.144 76.0681C94.458 76.0031 93.194 75.9681 91.995 75.9681C90.925 75.9681 89.661 76.0011 88.365 76.0681C88.106 75.9391 88.073 75.355 88.3 75.128L89.143 75.0281C90.243 74.8991 90.375 74.5091 90.375 72.1111L90.373 59.078ZM93.773 64.135C93.7566 64.5402 93.8431 64.9429 94.0244 65.3056C94.2058 65.6683 94.4761 65.9791 94.81 66.2091C95.3076 66.5874 95.9046 66.8126 96.528 66.857C98.765 66.857 99.996 64.5231 99.996 61.5411C99.996 58.4621 98.408 56.3551 95.879 56.3551C95.2331 56.3323 94.6043 56.5651 94.129 57.0031C93.87 57.2951 93.773 57.846 93.773 59.203V64.135Z" fill="white"/>
<path d="M106.872 59.078C106.872 57.619 106.872 57.23 106.061 56.744L105.672 56.517C105.621 56.3981 105.598 56.2694 105.604 56.1403C105.61 56.0112 105.644 55.885 105.705 55.771C107.12 55.3205 108.487 54.7345 109.789 54.021C109.886 54.0155 109.982 54.0408 110.063 54.0932C110.145 54.1457 110.208 54.2226 110.243 54.313C110.21 54.929 110.178 55.48 110.178 55.772C110.172 55.8192 110.175 55.8671 110.188 55.9128C110.202 55.9585 110.224 56.001 110.255 56.0376C110.285 56.0741 110.323 56.104 110.365 56.1252C110.408 56.1465 110.454 56.1587 110.502 56.161C111.502 55.448 112.577 54.475 113.679 54.475C113.902 54.4532 114.128 54.4778 114.341 54.5473C114.554 54.6167 114.751 54.7296 114.918 54.8788C115.086 55.028 115.22 55.2102 115.314 55.414C115.408 55.6178 115.458 55.8388 115.462 56.063C115.475 56.3078 115.438 56.5527 115.352 56.7824C115.266 57.0121 115.134 57.2217 114.964 57.3981C114.793 57.5745 114.589 57.7139 114.362 57.8077C114.136 57.9014 113.892 57.9475 113.647 57.943C113.337 57.9416 113.033 57.8518 112.772 57.684C112.324 57.3322 111.783 57.1182 111.216 57.068C110.471 57.068 110.276 57.814 110.276 59.402V63.843C110.276 66.243 110.406 66.598 111.54 66.728L112.804 66.858C113.031 67.085 112.999 67.668 112.739 67.798C110.794 67.733 109.692 67.698 108.493 67.698C107.423 67.698 106.354 67.731 105.122 67.798C104.863 67.668 104.83 67.085 105.057 66.858L105.64 66.758C106.74 66.563 106.872 66.239 106.872 63.841V59.078Z" fill="white"/>
<path d="M120.906 63.8419C120.906 66.2419 121.035 66.5649 122.138 66.7589L122.721 66.8589C122.948 67.0859 122.916 67.6689 122.656 67.7989C121.456 67.7339 120.356 67.6989 119.156 67.6989C118.086 67.6989 116.984 67.7309 115.756 67.7989C115.497 67.6689 115.464 67.0859 115.691 66.8589L116.274 66.7589C117.374 66.5639 117.506 66.2399 117.506 63.8419V59.0799C117.506 57.6209 117.506 57.2319 116.696 56.7459L116.307 56.5189C116.256 56.4 116.233 56.2712 116.239 56.1421C116.244 56.013 116.279 55.8869 116.34 55.7729C117.809 55.3593 119.224 54.7718 120.554 54.0229C120.644 54.029 120.732 54.0555 120.811 54.1004C120.889 54.1452 120.957 54.2073 121.008 54.2819C120.943 55.3519 120.908 56.9079 120.908 58.2369L120.906 63.8419ZM117.206 49.5469C117.199 49.1543 117.31 48.7686 117.523 48.439C117.737 48.1094 118.043 47.8508 118.404 47.696C118.765 47.5412 119.164 47.4974 119.55 47.57C119.936 47.6427 120.291 47.8285 120.571 48.1039C120.851 48.3792 121.042 48.7317 121.121 49.1163C121.2 49.5009 121.163 49.9004 121.014 50.2637C120.865 50.6271 120.612 50.9379 120.286 51.1566C119.959 51.3753 119.576 51.492 119.183 51.4919C118.923 51.5025 118.664 51.4597 118.422 51.3661C118.179 51.2726 117.958 51.1302 117.773 50.9479C117.588 50.7656 117.442 50.5472 117.344 50.3062C117.247 50.0652 117.2 49.8068 117.206 49.5469Z" fill="white"/>
<path d="M125.54 59.078C125.54 57.619 125.54 57.23 124.729 56.744L124.34 56.517C124.289 56.3981 124.266 56.2694 124.271 56.1403C124.277 56.0112 124.311 55.885 124.372 55.771C125.836 55.3416 127.249 54.7548 128.586 54.021C128.674 54.0183 128.761 54.0414 128.836 54.0874C128.911 54.1334 128.971 54.2003 129.008 54.28C128.961 54.7755 128.939 55.2732 128.943 55.771C128.943 55.998 129.043 56.063 129.235 56.095C130.823 55.252 131.666 54.474 133.87 54.474C134.427 54.4688 134.978 54.5884 135.483 54.8239C135.987 55.0594 136.433 55.4049 136.787 55.835C136.981 56.127 137.176 56.321 137.306 56.321C137.564 56.2643 137.807 56.1539 138.019 55.997C139.218 55.085 140.664 54.5541 142.168 54.473C144.891 54.473 146.122 56.288 146.122 58.817V63.841C146.122 66.241 146.252 66.596 147.354 66.758L148.067 66.858C148.359 67.085 148.197 67.668 148.067 67.798C146.836 67.7348 145.604 67.7015 144.372 67.698C143.302 67.698 142.2 67.731 141.033 67.798C140.774 67.668 140.741 67.085 140.968 66.858L141.487 66.758C142.587 66.563 142.719 66.239 142.719 63.841V59.433C142.719 57.715 142.136 56.418 140.094 56.418C139.684 56.4186 139.279 56.5055 138.905 56.6729C138.53 56.8404 138.196 57.0847 137.922 57.39C137.598 57.779 137.533 58.168 137.533 59.076V63.841C137.533 66.241 137.663 66.628 138.765 66.791L139.251 66.856C139.478 67.083 139.446 67.666 139.186 67.796C138.051 67.731 136.986 67.696 135.786 67.696C134.716 67.696 133.614 67.729 132.545 67.796C132.286 67.666 132.253 67.083 132.48 66.856L132.902 66.791C134.002 66.629 134.134 66.24 134.134 63.841V59.433C134.134 57.715 133.551 56.418 131.671 56.418C131.237 56.4026 130.806 56.4844 130.408 56.6575C130.01 56.8305 129.655 57.0903 129.371 57.418C128.982 57.937 128.95 58.228 128.95 59.492V63.836C128.95 66.236 129.08 66.623 130.182 66.786L130.668 66.851C130.895 67.078 130.863 67.661 130.603 67.791C129.459 67.7242 128.313 67.6909 127.167 67.691C126.097 67.691 125.028 67.724 123.796 67.791C123.537 67.661 123.504 67.078 123.731 66.851L124.314 66.751C125.414 66.556 125.546 66.232 125.546 63.834L125.54 59.078Z" fill="white"/>
<path d="M151.961 60.015C151.345 60.015 151.28 60.047 151.28 60.436C151.24 61.106 151.337 61.777 151.564 62.4085C151.792 63.04 152.145 63.6187 152.602 64.1097C153.06 64.6007 153.612 64.9936 154.226 65.2647C154.84 65.5359 155.503 65.6795 156.174 65.687C156.792 65.7297 157.409 65.601 157.958 65.3149C158.507 65.0288 158.966 64.5966 159.285 64.066C159.448 64.0407 159.615 64.0811 159.749 64.1783C159.882 64.2756 159.972 64.4218 159.998 64.585C159.544 65.6578 158.78 66.5704 157.804 67.2058C156.828 67.8413 155.685 68.1704 154.52 68.151C153.673 68.1712 152.832 68.0155 152.049 67.6938C151.265 67.3721 150.558 66.8915 149.97 66.2822C149.382 65.6728 148.926 64.9482 148.633 64.154C148.339 63.3597 148.214 62.5133 148.264 61.668C148.264 58.005 150.764 54.468 155.103 54.468C157.503 54.468 159.965 56.024 159.965 58.844C159.977 59.1023 159.921 59.3592 159.803 59.589C159.609 59.881 158.863 60.011 157.567 60.011L151.961 60.015ZM154.943 58.715C155.483 58.7667 156.027 58.6888 156.531 58.488C156.636 58.4089 156.72 58.3057 156.776 58.1872C156.833 58.0686 156.86 57.9382 156.855 57.807C156.871 57.5233 156.826 57.2395 156.724 56.9744C156.621 56.7093 156.464 56.4691 156.261 56.2697C156.059 56.0704 155.816 55.9164 155.55 55.8182C155.283 55.72 154.998 55.6797 154.715 55.7C153.944 55.7239 153.206 56.0152 152.626 56.5239C152.047 57.0325 151.663 57.7269 151.539 58.488C151.539 58.618 151.604 58.715 151.993 58.715H154.943Z" fill="white"/>
</g>
<defs>
<clipPath id="clip0_1391_12533">
<rect width="160" height="48.062" fill="white" transform="translate(0 28)"/>
</clipPath>
</defs>
</svg>
