<svg width="171" height="44" viewBox="0 0 171 44" fill="none" xmlns="http://www.w3.org/2000/svg">
<g clip-path="url(#clip0_1388_4991)">
<g clip-path="url(#clip1_1388_4991)">
<path d="M52.8393 23.0028C52.6448 23.0028 52.4858 23.1599 52.4858 23.3523C52.4858 23.5447 52.6448 23.7018 52.8393 23.7018H162.33C162.525 23.7018 162.684 23.5447 162.684 23.3523C162.684 23.1599 162.525 23.0028 162.33 23.0028H52.8393Z" fill="#2E1B11"/>
<path d="M63.7301 32.0965C63.5906 32.0965 63.5679 32.0612 63.5679 32.0163C63.5679 31.7726 63.9312 31.0159 64.7193 31.0159C65.2252 31.0159 65.4944 31.3526 65.4944 31.7726C65.4944 31.8785 65.4458 31.9682 65.3777 32.0163C65.2966 32.0612 65.1441 32.0965 64.8036 32.0965H63.7333H63.7301ZM65.7506 32.5582C66.2209 32.5582 66.4901 32.5133 66.5614 32.4075C66.6068 32.3145 66.6198 32.244 66.6198 32.1414C66.6198 31.1313 65.7279 30.5734 64.8587 30.5734C63.2825 30.5734 62.3777 31.84 62.3777 33.1514C62.3777 34.4629 63.2825 35.4762 64.6447 35.4762C65.3614 35.4762 66.2306 35.1299 66.6328 34.1968C66.6198 34.0909 66.4901 33.9755 66.3733 34.0108C66.1041 34.4405 65.7149 34.5912 65.2447 34.5912C64.1971 34.5912 63.4706 33.7543 63.4706 32.7089C63.4706 32.5711 63.4933 32.5582 63.7171 32.5582H65.7506ZM65.9517 28.5276C66.1171 28.3545 66.2468 28.2262 66.2468 28.0851C66.2468 27.9441 66.1755 27.8543 65.9744 27.7036C65.8349 27.5881 65.7052 27.54 65.5755 27.54C65.4587 27.54 65.342 27.6202 65.2122 27.8895L64.142 30.0058C64.1647 30.1437 64.249 30.2014 64.4014 30.1918L65.9517 28.5309V28.5276Z" fill="#2E1B11"/>
<path d="M67.5116 35.1042C67.3949 34.883 67.3235 34.2897 67.3462 33.7895C67.4176 33.6965 67.5927 33.6869 67.677 33.7671C67.8879 34.418 68.3224 35.0337 68.9484 35.0337C69.3116 35.0337 69.6068 34.7868 69.6068 34.3827C69.6068 33.9531 69.2176 33.6741 68.8057 33.4753C68.1927 33.1835 67.5603 32.7538 67.5603 32.0099C67.5473 31.1025 68.3354 30.5702 69.3116 30.5702C69.7916 30.5702 70.2392 30.7081 70.4046 30.8011C70.5213 31.0448 70.5797 31.4071 70.5797 31.9298C70.544 32.0227 70.3462 32.058 70.2619 31.9875C70.0868 31.452 69.7105 31.0095 69.25 31.0095C68.8738 31.0095 68.5916 31.2788 68.5916 31.6155C68.5916 31.9522 68.9322 32.1959 69.3797 32.4043C70.0154 32.7057 70.6867 33.1033 70.6867 34.0204C70.6867 35.0337 69.7819 35.473 68.8543 35.473C68.3711 35.473 67.8879 35.38 67.5116 35.101V35.1042Z" fill="#2E1B11"/>
<path d="M73.6348 31.282C73.3883 31.282 73.3883 31.3045 73.3883 31.6412V33.9306C73.3883 34.79 73.4338 34.9182 73.8456 34.9663L74.3029 35.0112C74.384 35.0946 74.3743 35.303 74.2802 35.3479C73.7483 35.3255 73.2943 35.3126 72.7397 35.3126C72.3505 35.3126 71.9516 35.3222 71.4716 35.3479C71.3776 35.303 71.3646 35.0914 71.4489 35.0112L71.7051 34.9759C72.1073 34.9182 72.1527 34.79 72.1527 33.9306V31.6283C72.1527 31.3141 72.1397 31.2788 71.9419 31.2788H71.5203C71.4262 31.2307 71.4035 31.08 71.4846 31.0095L71.9905 30.753C72.0748 30.7049 72.1559 30.6375 72.1559 30.4964V30.288C72.1559 29.7878 72.2013 29.2203 72.4024 28.627C72.7073 27.71 73.4954 27.0013 74.6013 27.0013C75.4121 27.0013 75.9408 27.3605 75.9408 27.8511C75.9408 28.1749 75.6456 28.409 75.3635 28.409C75.1883 28.409 75.0943 28.3417 75.0229 28.2455C74.6467 27.71 74.3873 27.4791 74.1051 27.4791C73.7062 27.4791 73.3883 28.2711 73.3883 30.0123V30.3618C73.3883 30.7113 73.4013 30.7337 73.6478 30.7337H74.8835C74.9321 30.769 74.9548 30.8363 74.9548 30.9197C74.9548 31.1185 74.8835 31.2211 74.7894 31.2788H73.6381L73.6348 31.282Z" fill="#2E1B11"/>
<path d="M76.5213 32.9302C76.5213 31.6412 76.9915 31.0383 77.5915 31.0383C78.4607 31.0383 78.8012 32.1895 78.8012 33.1643C78.8012 34.0589 78.5677 35.0112 77.7569 35.0112C76.9461 35.0112 76.5213 33.9883 76.5213 32.9302ZM77.7083 30.5734C76.3332 30.5734 75.1332 31.5482 75.1332 33.1065C75.1332 34.6649 76.2618 35.4762 77.6142 35.4762C78.9667 35.4762 80.1893 34.6168 80.1893 32.9655C80.1893 31.4552 79.038 30.5702 77.7083 30.5702V30.5734Z" fill="#2E1B11"/>
<path d="M81.3634 32.2215C81.3634 31.6989 81.3634 31.5578 81.0715 31.3846L80.9288 31.3045C80.8931 31.2596 80.8931 31.096 80.9418 31.0383C81.4477 30.8748 82.0704 30.6183 82.4239 30.4099C82.4953 30.4099 82.5666 30.4451 82.5893 30.5157C82.5764 30.7369 82.5666 30.9357 82.5666 31.0415C82.5666 31.1217 82.6153 31.1794 82.6834 31.1794C83.0499 30.9229 83.4358 30.5766 83.8347 30.5766C84.2336 30.5766 84.4801 30.8427 84.4801 31.1474C84.4801 31.5995 84.1396 31.8207 83.8218 31.8207C83.705 31.8207 83.598 31.7854 83.5039 31.7277C83.2088 31.5289 83.011 31.5065 82.9396 31.5065C82.6704 31.5065 82.5991 31.7758 82.5991 32.3434V33.9338C82.5991 34.7932 82.6445 34.9214 83.0564 34.9695L83.5137 35.0144C83.598 35.0978 83.585 35.3062 83.4877 35.3511C82.7839 35.3286 82.3818 35.3158 81.9504 35.3158C81.5612 35.3158 81.1753 35.3254 80.7277 35.3511C80.6337 35.3062 80.624 35.0946 80.705 35.0144L80.9158 34.9791C81.3148 34.9214 81.3634 34.7932 81.3634 33.9338V32.2247V32.2215Z" fill="#2E1B11"/>
<path d="M86.9579 31.2468C86.7439 31.2468 86.7342 31.2692 86.7342 31.6412V33.4304C86.7342 34.1647 86.8379 34.8156 87.5904 34.8156C87.8239 34.8156 87.9666 34.7323 88.1547 34.6072C88.2585 34.6168 88.3298 34.7098 88.3071 34.8381C88.0704 35.1619 87.532 35.4762 86.8152 35.4762C85.6996 35.4762 85.4985 34.8381 85.4985 34.0236V31.6636C85.4985 31.2564 85.4758 31.2468 85.2877 31.2468H84.8758C84.759 31.1891 84.7331 31.0031 84.8401 30.9326C85.239 30.7818 85.5082 30.6311 85.7677 30.4452C85.9882 30.2816 86.2509 30.0379 86.4131 29.7237C86.5201 29.6532 86.6855 29.6884 86.7439 29.7814V30.4772C86.7439 30.6632 86.7439 30.6985 86.9677 30.6985H88.132C88.2033 30.7337 88.226 30.8267 88.226 30.9422C88.2131 31.0801 88.1677 31.1859 88.0736 31.2436H86.9579V31.2468Z" fill="#2E1B11"/>
<path d="M91.2746 34.2802C91.2617 34.5591 91.1319 34.8381 90.7103 34.8381C90.2628 34.8381 90.0519 34.4661 90.0519 34.1647C90.0519 33.6645 90.3568 33.501 90.6876 33.3855C90.8984 33.3054 91.1125 33.2477 91.2065 33.2477C91.2649 33.2477 91.3006 33.3182 91.3006 33.4433L91.2779 34.2802H91.2746ZM92.533 32.026C92.5784 31.0031 92.0044 30.5734 91.0736 30.5734C90.4736 30.5734 89.6271 30.9678 89.2638 31.3045C88.8747 31.6636 88.8065 31.9073 88.8065 32.0484C88.8065 32.151 88.8779 32.2344 89.0303 32.2344C89.2898 32.2344 89.6174 32.1286 89.7828 32.026C89.9092 31.9458 89.9806 31.8272 90.0065 31.6091C90.0552 31.2724 90.2984 31.0993 90.6292 31.0993C91.2065 31.0993 91.3687 31.6091 91.346 32.2023L91.333 32.507C91.333 32.6224 91.2973 32.7282 91.0638 32.8084C90.6292 32.9719 90.1817 33.1354 89.7698 33.2733C88.959 33.5523 88.7936 33.9371 88.7936 34.3539C88.7936 34.9343 89.1925 35.4794 89.9903 35.4794C90.4152 35.4794 90.7687 35.3191 90.9892 35.178C91.1644 35.0722 91.2487 35.0144 91.3071 35.0144C91.3654 35.0144 91.4141 35.0722 91.4952 35.1555C91.719 35.3992 92.0465 35.4794 92.3417 35.4794C92.7049 35.4794 93.2822 35.2934 93.5157 34.9696C93.5514 34.8637 93.467 34.7355 93.4119 34.7355C93.3762 34.7355 93.2108 34.8637 93.013 34.8637C92.5881 34.8637 92.413 34.5174 92.4487 33.8409L92.533 32.0292V32.026Z" fill="#2E1B11"/>
<path d="M102.266 34.7868C102.409 34.9214 102.522 35.0754 102.606 35.2453C102.688 35.4152 102.73 35.6269 102.73 35.8802C102.73 36.1335 102.675 36.3708 102.561 36.592C102.451 36.8133 102.282 37.0057 102.055 37.1692C101.815 37.3359 101.526 37.4674 101.192 37.5572C100.858 37.6502 100.443 37.6951 99.9503 37.6951C99.146 37.6951 98.5427 37.5796 98.1438 37.3456C97.7449 37.1115 97.5438 36.7716 97.5438 36.3227C97.5438 35.9604 97.6865 35.675 97.9752 35.4633C98.2638 35.2549 98.6303 35.1395 99.0746 35.1235V35.0497C98.9676 35.0176 98.8541 34.9759 98.7406 34.9311C98.627 34.883 98.5265 34.8285 98.4422 34.7643C98.3481 34.6906 98.2735 34.6008 98.2152 34.5014C98.1568 34.3988 98.1276 34.2737 98.1276 34.1262C98.1276 33.937 98.1957 33.7639 98.3287 33.6068C98.4616 33.4496 98.666 33.3118 98.9416 33.1995V33.1194C98.5979 32.9591 98.3287 32.7538 98.1373 32.5037C97.946 32.2536 97.8519 31.9618 97.8519 31.6316C97.8519 31.1345 98.04 30.7241 98.4162 30.4035C98.7925 30.0828 99.2724 29.9225 99.8595 29.9225C100.022 29.9225 100.184 29.9385 100.343 29.9706C100.502 30.0026 100.664 30.0443 100.829 30.0924H102.684V30.6055H101.432V30.6375C101.565 30.7914 101.663 30.9582 101.728 31.1442C101.792 31.3301 101.825 31.5097 101.825 31.6893C101.825 32.151 101.637 32.5422 101.257 32.8629C100.878 33.1835 100.437 33.3438 99.9341 33.3438H99.2822C99.2011 33.3727 99.1135 33.424 99.0227 33.4977C98.9319 33.5715 98.8865 33.6741 98.8865 33.8024C98.8865 33.9306 98.9254 34.0332 99 34.1038C99.0746 34.1743 99.1654 34.2192 99.2757 34.2449C99.3795 34.2737 99.5027 34.2898 99.6389 34.2994C99.7784 34.3058 99.9211 34.3122 100.067 34.3154C100.226 34.3186 100.443 34.3282 100.716 34.3475C100.991 34.3667 101.186 34.3763 101.299 34.3795C101.465 34.386 101.63 34.4244 101.799 34.4982C101.968 34.5687 102.117 34.6681 102.256 34.79L102.266 34.7868ZM101.844 36.079C101.844 35.8802 101.799 35.7167 101.705 35.5884C101.611 35.4601 101.468 35.3736 101.277 35.3287C101.176 35.3158 100.969 35.2998 100.657 35.2806C100.346 35.2613 99.9827 35.2549 99.5676 35.2549C99.1784 35.3287 98.9027 35.4537 98.7406 35.6301C98.5784 35.8064 98.4941 36.0309 98.4941 36.3099C98.4941 36.4349 98.52 36.5536 98.5752 36.6658C98.6303 36.7812 98.7211 36.8838 98.8573 36.98C98.9838 37.073 99.1525 37.1468 99.3633 37.2077C99.5741 37.2654 99.8335 37.2943 100.138 37.2943C100.667 37.2943 101.082 37.1949 101.387 36.9928C101.692 36.7908 101.844 36.4862 101.844 36.079ZM100.806 31.6668C100.806 31.25 100.722 30.9197 100.55 30.6728C100.378 30.4259 100.138 30.3009 99.8303 30.3009C99.6616 30.3009 99.5157 30.3361 99.3957 30.4035C99.2757 30.474 99.1784 30.5702 99.1006 30.6985C99.0292 30.8171 98.9773 30.9582 98.9481 31.1217C98.9189 31.2885 98.9027 31.4584 98.9027 31.6316C98.9027 32.026 98.9903 32.3466 99.1654 32.5967C99.3406 32.8468 99.5643 32.9687 99.8433 32.9687C100.151 32.9687 100.391 32.8436 100.557 32.5967C100.725 32.3498 100.806 32.0388 100.806 31.6604V31.6668Z" fill="#2E1B11"/>
<path d="M108.957 32.648C108.957 33.0167 108.898 33.3823 108.778 33.7382C108.658 34.0973 108.49 34.3987 108.272 34.6489C108.026 34.9342 107.737 35.1459 107.41 35.2837C107.082 35.4216 106.716 35.4922 106.31 35.4922C105.973 35.4922 105.652 35.428 105.344 35.303C105.039 35.1779 104.766 34.992 104.53 34.7515C104.296 34.5142 104.111 34.2224 103.972 33.8793C103.832 33.5362 103.764 33.1514 103.764 32.7249C103.764 31.9041 104.008 31.2307 104.491 30.708C104.974 30.1854 105.61 29.9257 106.391 29.9257C107.173 29.9257 107.75 30.1726 108.233 30.6696C108.717 31.1666 108.96 31.8271 108.96 32.6512L108.957 32.648ZM107.841 32.6608C107.841 32.3947 107.815 32.1125 107.76 31.8143C107.705 31.5161 107.624 31.266 107.517 31.0608C107.4 30.8395 107.251 30.6632 107.063 30.5285C106.875 30.3938 106.647 30.3297 106.378 30.3297C106.109 30.3297 105.866 30.397 105.668 30.5317C105.473 30.6664 105.311 30.8523 105.191 31.0864C105.078 31.3045 104.997 31.5514 104.948 31.8271C104.903 32.1061 104.877 32.3722 104.877 32.632C104.877 32.9718 104.906 33.2893 104.961 33.5779C105.016 33.8665 105.107 34.1262 105.227 34.3539C105.35 34.5815 105.503 34.7611 105.688 34.8893C105.872 35.0208 106.103 35.0849 106.375 35.0849C106.826 35.0849 107.179 34.8701 107.442 34.4404C107.705 34.0108 107.835 33.4176 107.835 32.6576L107.841 32.6608Z" fill="#2E1B11"/>
<path d="M112.443 35.3318H109.849V34.9791C109.93 34.9727 110.02 34.9631 110.114 34.9535C110.209 34.9439 110.286 34.931 110.345 34.915C110.445 34.8829 110.52 34.8284 110.572 34.7483C110.62 34.6681 110.646 34.5655 110.646 34.4372V28.3481C110.646 28.2198 110.62 28.1012 110.562 27.9889C110.507 27.8767 110.432 27.7901 110.345 27.726C110.28 27.6843 110.16 27.6426 109.988 27.6073C109.816 27.5721 109.677 27.5496 109.573 27.5432V27.2033L111.574 27.0815L111.649 27.1616V34.3763C111.649 34.5014 111.671 34.604 111.72 34.6841C111.765 34.7643 111.843 34.8252 111.947 34.8669C112.025 34.9022 112.103 34.9278 112.18 34.9471C112.258 34.9631 112.346 34.9759 112.443 34.9855V35.3383V35.3318Z" fill="#2E1B11"/>
<path d="M117.733 27.71C117.733 27.8703 117.691 28.005 117.603 28.114C117.516 28.223 117.386 28.2807 117.211 28.2807C117.1 28.2807 117 28.2583 116.916 28.2102C116.831 28.1653 116.753 28.1012 116.682 28.0242C116.611 27.9472 116.543 27.8575 116.481 27.7581C116.419 27.6587 116.367 27.5785 116.325 27.5176C116.085 27.5272 115.897 27.6939 115.767 28.0178C115.634 28.3384 115.57 28.8515 115.57 29.5569V30.0956H116.938V30.6087H115.57V34.3827C115.57 34.5078 115.592 34.6104 115.641 34.6873C115.69 34.7643 115.767 34.8252 115.871 34.8637C115.959 34.8958 116.072 34.9214 116.215 34.9407C116.358 34.9599 116.484 34.9727 116.588 34.9823V35.3351H113.783V34.9823C113.867 34.9759 113.951 34.9695 114.039 34.9599C114.126 34.9535 114.204 34.9374 114.269 34.9182C114.37 34.8861 114.444 34.8316 114.493 34.7515C114.542 34.6713 114.564 34.5687 114.564 34.4404V30.6119H113.513V30.0988H114.564V29.7621C114.564 28.9605 114.775 28.3128 115.193 27.819C115.612 27.322 116.137 27.0751 116.766 27.0751C117.087 27.0751 117.327 27.136 117.49 27.2611C117.652 27.3861 117.733 27.5368 117.733 27.7132V27.71Z" fill="#2E1B11"/>
<path d="M124.647 32.757C124.793 32.8853 124.907 33.0328 124.988 33.1995C125.069 33.3662 125.108 33.5714 125.108 33.8119C125.108 34.2993 124.923 34.6969 124.557 35.008C124.187 35.3158 123.71 35.4729 123.123 35.4729C122.815 35.4729 122.53 35.4184 122.267 35.3062C122.007 35.1971 121.819 35.0945 121.709 35.0015L121.602 35.3479H121.197L121.145 33.5169H121.518C121.547 33.6548 121.608 33.8183 121.702 34.0011C121.797 34.1871 121.91 34.3538 122.043 34.5013C122.182 34.6585 122.351 34.7899 122.549 34.8957C122.744 35.0015 122.967 35.0561 123.211 35.0561C123.558 35.0561 123.82 34.9791 124.008 34.8252C124.197 34.6713 124.291 34.45 124.291 34.1614C124.291 34.0107 124.261 33.8825 124.203 33.7735C124.145 33.6644 124.057 33.5714 123.94 33.4881C123.82 33.4079 123.674 33.3342 123.502 33.2668C123.331 33.2027 123.139 33.1354 122.925 33.0712C122.757 33.0199 122.568 32.9526 122.361 32.866C122.153 32.7794 121.978 32.6768 121.829 32.5582C121.67 32.4331 121.54 32.2792 121.44 32.0997C121.339 31.9169 121.287 31.7053 121.287 31.4584C121.287 31.0287 121.45 30.6631 121.774 30.3649C122.098 30.0667 122.53 29.916 123.074 29.916C123.282 29.916 123.496 29.9417 123.713 29.9962C123.931 30.0507 124.109 30.1148 124.245 30.1886L124.368 29.9096H124.758L124.839 31.5994H124.466C124.391 31.2243 124.226 30.9165 123.979 30.6792C123.729 30.4419 123.425 30.3232 123.065 30.3232C122.769 30.3232 122.539 30.397 122.367 30.5413C122.199 30.6856 122.114 30.8619 122.114 31.0704C122.114 31.2307 122.144 31.3622 122.199 31.4712C122.254 31.577 122.338 31.6668 122.448 31.7437C122.555 31.8143 122.692 31.8816 122.854 31.9425C123.019 32.0035 123.22 32.074 123.46 32.1542C123.697 32.2279 123.921 32.3145 124.132 32.4139C124.342 32.5133 124.514 32.6223 124.654 32.7442L124.647 32.757Z" fill="#2E1B11"/>
<path d="M128.591 35.4697C127.822 35.4697 127.219 35.2164 126.785 34.713C126.35 34.2096 126.133 33.5298 126.133 32.6801C126.133 32.3113 126.191 31.965 126.308 31.6411C126.425 31.3205 126.593 31.0287 126.817 30.7626C127.028 30.5092 127.297 30.3072 127.615 30.1501C127.936 29.9962 128.283 29.9193 128.662 29.9193C129.185 29.9193 129.609 30.0443 129.934 30.2912C130.261 30.5381 130.423 30.8748 130.423 31.3013C130.423 31.4776 130.381 31.6347 130.294 31.7726C130.206 31.9105 130.067 31.9778 129.869 31.9778C129.658 31.9778 129.493 31.9233 129.376 31.8175C129.259 31.7117 129.201 31.593 129.201 31.4616C129.201 31.3013 129.22 31.1377 129.266 30.9678C129.308 30.7978 129.334 30.676 129.34 30.5958C129.275 30.4868 129.178 30.4131 129.052 30.3746C128.925 30.3361 128.786 30.3169 128.64 30.3169C128.468 30.3169 128.302 30.3521 128.147 30.4259C127.991 30.4996 127.839 30.6343 127.689 30.8299C127.556 31.0063 127.449 31.2467 127.365 31.5514C127.281 31.8528 127.242 32.2151 127.242 32.6352C127.242 33.2957 127.391 33.8376 127.686 34.2545C127.981 34.6713 128.374 34.8797 128.854 34.8797C129.204 34.8797 129.496 34.7964 129.729 34.6296C129.966 34.4629 130.183 34.2128 130.385 33.8761L130.728 34.1005C130.492 34.5206 130.177 34.8541 129.791 35.0978C129.402 35.3447 129 35.4665 128.588 35.4665L128.591 35.4697Z" fill="#2E1B11"/>
<path d="M137.367 35.3319H134.756V34.9792C134.841 34.9727 134.932 34.9663 135.032 34.9567C135.133 34.9503 135.217 34.9343 135.279 34.915C135.379 34.883 135.454 34.8284 135.502 34.7483C135.551 34.6681 135.574 34.5655 135.574 34.4373V31.7342C135.574 31.3622 135.486 31.0736 135.308 30.8716C135.129 30.6696 134.912 30.567 134.659 30.567C134.471 30.567 134.299 30.5958 134.14 30.6536C133.978 30.7113 133.839 30.785 133.712 30.8684C133.589 30.9582 133.498 31.0448 133.433 31.1345C133.368 31.2243 133.316 31.2981 133.281 31.359V34.3827C133.281 34.5046 133.307 34.604 133.352 34.6809C133.401 34.7579 133.475 34.8188 133.576 34.8637C133.657 34.899 133.738 34.9246 133.822 34.9439C133.907 34.9599 133.998 34.9727 134.101 34.9824V35.3351H131.491V34.9824C131.575 34.9759 131.659 34.9663 131.75 34.9567C131.841 34.9471 131.915 34.9343 131.977 34.9182C132.078 34.8862 132.152 34.8317 132.204 34.7515C132.256 34.6713 132.279 34.5687 132.279 34.4405V28.3192C132.279 28.1974 132.249 28.0787 132.194 27.9569C132.139 27.835 132.065 27.7453 131.977 27.6843C131.912 27.6394 131.799 27.6042 131.633 27.5849C131.471 27.5657 131.338 27.5529 131.238 27.5465V27.2066L133.206 27.0847L133.281 27.1649V30.8331H133.303C133.423 30.7145 133.53 30.6119 133.628 30.5221C133.725 30.4323 133.852 30.3361 134.01 30.2367C134.147 30.1501 134.309 30.0796 134.494 30.0219C134.679 29.9642 134.886 29.9353 135.116 29.9353C135.59 29.9353 135.956 30.0828 136.213 30.381C136.469 30.6792 136.595 31.1057 136.595 31.6636V34.3988C136.595 34.5238 136.618 34.6232 136.663 34.7002C136.709 34.7771 136.783 34.8349 136.887 34.8798C136.968 34.9118 137.043 34.9375 137.111 34.9503C137.179 34.9663 137.263 34.9792 137.374 34.9856V35.3383L137.367 35.3319Z" fill="#2E1B11"/>
<path d="M143.202 32.648C143.202 33.0167 143.143 33.3823 143.023 33.7382C142.903 34.0973 142.735 34.3987 142.517 34.6489C142.271 34.9342 141.982 35.1459 141.655 35.2837C141.327 35.4216 140.961 35.4922 140.555 35.4922C140.218 35.4922 139.894 35.428 139.589 35.303C139.284 35.1779 139.012 34.992 138.775 34.7515C138.541 34.5142 138.353 34.2224 138.217 33.8793C138.078 33.5362 138.009 33.1514 138.009 32.7249C138.009 31.9041 138.253 31.2307 138.736 30.708C139.219 30.1854 139.855 29.9257 140.636 29.9257C141.418 29.9257 141.995 30.1726 142.479 30.6696C142.962 31.1666 143.205 31.8271 143.205 32.6512L143.202 32.648ZM142.086 32.6608C142.086 32.3947 142.06 32.1125 142.005 31.8143C141.95 31.5161 141.869 31.266 141.762 31.0608C141.648 30.8395 141.496 30.6632 141.308 30.5285C141.12 30.3938 140.893 30.3297 140.623 30.3297C140.354 30.3297 140.111 30.397 139.913 30.5317C139.719 30.6664 139.56 30.8523 139.436 31.0864C139.323 31.3045 139.242 31.5514 139.193 31.8271C139.148 32.1061 139.122 32.3722 139.122 32.632C139.122 32.9718 139.151 33.2893 139.206 33.5779C139.261 33.8665 139.352 34.1262 139.472 34.3539C139.595 34.5815 139.748 34.7611 139.933 34.8893C140.117 35.0208 140.348 35.0849 140.62 35.0849C141.071 35.0849 141.424 34.8701 141.687 34.4404C141.95 34.0108 142.08 33.4176 142.08 32.6576L142.086 32.6608Z" fill="#2E1B11"/>
<path d="M149.156 32.648C149.156 33.0167 149.098 33.3823 148.978 33.7382C148.858 34.0973 148.689 34.3987 148.472 34.6489C148.222 34.9342 147.937 35.1459 147.609 35.2837C147.282 35.4216 146.915 35.4922 146.51 35.4922C146.172 35.4922 145.848 35.428 145.543 35.303C145.238 35.1779 144.966 34.992 144.729 34.7515C144.496 34.5142 144.308 34.2224 144.171 33.8793C144.032 33.5362 143.964 33.1514 143.964 32.7249C143.964 31.9041 144.207 31.2307 144.69 30.708C145.174 30.1854 145.809 29.9257 146.591 29.9257C147.372 29.9257 147.95 30.1726 148.433 30.6696C148.916 31.1666 149.159 31.8271 149.159 32.6512L149.156 32.648ZM148.041 32.6608C148.041 32.3947 148.015 32.1125 147.96 31.8143C147.908 31.5161 147.827 31.266 147.716 31.0608C147.6 30.8395 147.45 30.6632 147.262 30.5285C147.074 30.3938 146.847 30.3297 146.578 30.3297C146.309 30.3297 146.065 30.397 145.868 30.5317C145.673 30.6664 145.514 30.8523 145.391 31.0864C145.274 31.3045 145.196 31.5514 145.148 31.8271C145.102 32.1061 145.08 32.3722 145.08 32.632C145.08 32.9718 145.105 33.2893 145.164 33.5779C145.219 33.8665 145.31 34.1262 145.43 34.3539C145.553 34.5815 145.705 34.7611 145.89 34.8893C146.075 35.0208 146.305 35.0849 146.578 35.0849C147.025 35.0849 147.382 34.8701 147.645 34.4404C147.908 34.0108 148.037 33.4176 148.037 32.6576L148.041 32.6608Z" fill="#2E1B11"/>
<path d="M152.202 35.3318H149.607V34.9791C149.691 34.9727 149.779 34.9631 149.873 34.9535C149.967 34.9439 150.045 34.931 150.103 34.915C150.204 34.8829 150.278 34.8284 150.33 34.7483C150.379 34.6681 150.405 34.5655 150.405 34.4372V28.3481C150.405 28.2198 150.376 28.1012 150.321 27.9889C150.265 27.8767 150.191 27.7901 150.103 27.726C150.038 27.6843 149.922 27.6426 149.747 27.6073C149.575 27.5721 149.435 27.5496 149.331 27.5432V27.2033L151.332 27.0815L151.407 27.1616V34.3763C151.407 34.5014 151.43 34.604 151.478 34.6841C151.524 34.7643 151.602 34.8252 151.705 34.8669C151.783 34.9022 151.861 34.9278 151.939 34.9471C152.017 34.9631 152.104 34.9759 152.202 34.9855V35.3383V35.3318Z" fill="#2E1B11"/>
<path d="M68.222 17.1445H62.7442V16.532C62.942 16.5256 63.1982 16.5064 63.5096 16.4711C63.8209 16.4358 64.035 16.3877 64.1517 16.3236C64.3334 16.2146 64.4663 16.0895 64.5506 15.9485C64.635 15.8074 64.6771 15.631 64.6771 15.4162V6.49886H64.5474L60.3183 16.9457H59.8804L55.8524 6.28403H55.7388V13.6013C55.7388 14.3099 55.7842 14.8486 55.8751 15.2174C55.9659 15.5861 56.1021 15.8523 56.2902 16.0126C56.4199 16.1344 56.6826 16.2499 57.0848 16.3589C57.4869 16.4679 57.7496 16.5256 57.8729 16.532V17.1445H52.8654V16.532C53.1281 16.5096 53.4037 16.4647 53.6924 16.4038C53.981 16.3397 54.2048 16.2467 54.3605 16.1184C54.5648 15.9581 54.7043 15.708 54.7788 15.3745C54.8534 15.041 54.8924 14.4831 54.8924 13.6975V7.42554C54.8924 7.06321 54.8502 6.765 54.7626 6.53413C54.6751 6.30327 54.5486 6.11729 54.3864 5.97299C54.2048 5.81908 53.9843 5.70365 53.7216 5.62669C53.4589 5.55294 53.1994 5.50805 52.9432 5.49843V4.88599H57.1723L60.7204 14.0791L63.7528 6.38984C63.8631 6.10767 63.9571 5.81267 64.035 5.50484C64.1128 5.19702 64.155 4.9918 64.1615 4.88599H68.209V5.49843C68.0468 5.50484 67.836 5.5305 67.583 5.57539C67.3301 5.62028 67.1452 5.66517 67.0285 5.70365C66.8306 5.77419 66.6977 5.88963 66.6263 6.04995C66.5549 6.21028 66.5225 6.38663 66.5225 6.57582V15.413C66.5225 15.615 66.5582 15.7849 66.6263 15.9228C66.6977 16.0607 66.8306 16.1825 67.0285 16.2851C67.1322 16.3429 67.3203 16.3974 67.5863 16.4455C67.8555 16.4936 68.0663 16.5224 68.2252 16.5288V17.1413L68.222 17.1445Z" fill="#2E1B11"/>
<path d="M69.0101 19.9277C69.0101 19.6391 69.0911 19.4051 69.2501 19.2223C69.409 19.0395 69.6101 18.9497 69.8501 18.9497C70.0349 18.9497 70.1971 18.985 70.3301 19.0523C70.463 19.1229 70.583 19.2095 70.6868 19.3217C70.7744 19.4083 70.8684 19.5269 70.9657 19.6744C71.0663 19.8251 71.1441 19.947 71.2025 20.0464C71.4944 19.8924 71.8414 19.4852 72.2468 18.8279C72.6522 18.1706 72.9441 17.5966 73.1257 17.0996C72.5711 15.7336 72.0717 14.5119 71.6241 13.4345C71.1765 12.3571 70.7063 11.2445 70.2165 10.0901C70.1063 9.824 69.9182 9.61878 69.6587 9.47128C69.396 9.32378 69.1333 9.23079 68.8706 9.18911V8.61835H72.8046V9.22438C72.6295 9.23079 72.4187 9.26606 72.1754 9.3334C71.9322 9.40074 71.809 9.47449 71.809 9.56106C71.809 9.59633 71.8219 9.65405 71.8479 9.73421C71.8738 9.81438 71.9063 9.89775 71.9387 9.98432C72.1592 10.5551 72.4965 11.3759 72.9538 12.4501C73.4079 13.5243 73.7614 14.3837 74.0111 15.0282C74.2738 14.4125 74.5462 13.7744 74.8284 13.1139C75.1105 12.4533 75.4284 11.6742 75.7754 10.7763C75.8176 10.6673 75.8759 10.5166 75.9505 10.3242C76.0251 10.1318 76.0641 9.96508 76.0641 9.8272C76.0641 9.6765 75.9311 9.53862 75.6651 9.40715C75.3992 9.27889 75.1495 9.19873 74.9095 9.16987V8.61835H78.1073V9.15383C77.9321 9.18269 77.7019 9.2821 77.4165 9.45204C77.1311 9.62199 76.917 9.86247 76.7776 10.1735C76.0835 11.7639 75.4673 13.2133 74.9289 14.5183C74.3906 15.8266 73.9819 16.7885 73.6997 17.4042C73.3333 18.209 73.0057 18.8407 72.7171 19.2928C72.4284 19.7449 72.1463 20.1009 71.8738 20.3606C71.6046 20.6011 71.3614 20.7646 71.1441 20.848C70.9268 20.9314 70.6998 20.973 70.4663 20.973C70.0122 20.973 69.6555 20.8672 69.396 20.6524C69.1366 20.4408 69.0068 20.1939 69.0068 19.9181L69.0101 19.9277Z" fill="#2E1B11"/>
<path d="M93.9406 12.245C93.8011 12.261 93.613 12.2899 93.3763 12.3283C93.1395 12.3668 92.9482 12.4181 92.8022 12.4887C92.6271 12.5752 92.5038 12.6971 92.4325 12.8574C92.3579 13.0145 92.3222 13.2005 92.3222 13.4153V14.3645C92.3222 15.0571 92.3255 15.522 92.3352 15.7657C92.3449 16.0062 92.3547 16.205 92.3644 16.3621C91.5893 16.7084 90.8174 16.9714 90.0487 17.1573C89.2801 17.3401 88.5244 17.4331 87.785 17.4331C86.9936 17.4331 86.2282 17.2856 85.4953 16.9938C84.7623 16.6988 84.1201 16.282 83.572 15.7401C83.0175 15.1917 82.5796 14.528 82.2521 13.7456C81.9245 12.9632 81.7623 12.0878 81.7623 11.1195C81.7623 10.1511 81.918 9.32062 82.2294 8.5222C82.5407 7.72378 82.9818 7.03117 83.5526 6.44438C84.1072 5.86721 84.7655 5.4215 85.5309 5.10085C86.2963 4.7802 87.1169 4.61987 87.9893 4.61987C88.6898 4.61987 89.2963 4.70324 89.8152 4.86998C90.3341 5.03672 90.7914 5.23873 91.1871 5.47601L91.5471 4.88922H92.2476L92.3255 9.17312H91.6087C91.4855 8.70177 91.333 8.23682 91.1547 7.77829C90.9731 7.31976 90.7395 6.90932 90.4541 6.54699C90.1687 6.18465 89.8217 5.89286 89.4098 5.67802C88.9979 5.46319 88.5082 5.35416 87.9374 5.35416C87.3147 5.35416 86.7569 5.47922 86.2671 5.72933C85.7774 5.97943 85.3526 6.35139 84.9926 6.8484C84.6358 7.32617 84.3634 7.92258 84.172 8.63764C83.9807 9.35269 83.8834 10.1511 83.8834 11.0297C83.8834 11.8057 83.9774 12.54 84.1688 13.2294C84.3569 13.9188 84.6326 14.512 84.9926 15.0122C85.3526 15.5252 85.8066 15.9292 86.3482 16.221C86.8898 16.516 87.5061 16.6603 88.1904 16.6603C88.7028 16.6603 89.1698 16.5834 89.5947 16.4263C90.0163 16.2723 90.3147 16.1056 90.4898 15.9325C90.5352 15.6342 90.5612 15.3296 90.5644 15.025C90.5644 14.7204 90.5677 14.4607 90.5677 14.249V13.5757C90.5677 13.3352 90.5352 13.1203 90.4671 12.9312C90.399 12.7452 90.2628 12.6073 90.052 12.5207C89.8606 12.4341 89.5979 12.37 89.2704 12.3251C88.9396 12.2834 88.6833 12.2546 88.4985 12.2418V11.6101H93.9341V12.2418L93.9406 12.245Z" fill="#2E1B11"/>
<path d="M103.807 12.7996C103.807 13.3993 103.709 13.9861 103.518 14.5664C103.327 15.1436 103.051 15.6374 102.697 16.0382C102.295 16.5 101.828 16.8431 101.3 17.0675C100.768 17.292 100.174 17.4042 99.5157 17.4042C98.9676 17.4042 98.4455 17.3016 97.9525 17.0964C97.4563 16.8912 97.0185 16.593 96.6325 16.2018C96.2531 15.817 95.9515 15.3456 95.7277 14.7877C95.5039 14.233 95.3904 13.6077 95.3904 12.9183C95.3904 11.5876 95.7828 10.5006 96.5644 9.65406C97.3493 8.80754 98.3741 8.38428 99.6455 8.38428C100.917 8.38428 101.848 8.78509 102.629 9.58993C103.414 10.3916 103.803 11.4625 103.803 12.7996H103.807ZM101.997 12.8157C101.997 12.3828 101.955 11.9275 101.867 11.4465C101.78 10.9655 101.65 10.5583 101.475 10.2248C101.29 9.86889 101.043 9.58031 100.742 9.36547C100.44 9.15063 100.067 9.04161 99.6325 9.04161C99.1979 9.04161 98.8022 9.15063 98.4844 9.36868C98.1666 9.58672 97.9071 9.88813 97.7125 10.2665C97.5277 10.6192 97.3947 11.0168 97.3201 11.4689C97.2455 11.9179 97.2066 12.3539 97.2066 12.774C97.2066 13.3255 97.252 13.8386 97.3428 14.3067C97.4336 14.7749 97.5763 15.1949 97.7741 15.5637C97.972 15.9324 98.2217 16.221 98.5201 16.4326C98.8217 16.6443 99.1914 16.7469 99.6325 16.7469C100.362 16.7469 100.94 16.3974 101.364 15.7015C101.789 15.0057 102.003 14.0438 102.003 12.8157H101.997Z" fill="#2E1B11"/>
<path d="M108.736 17.1445H104.533V16.5737C104.666 16.5609 104.809 16.5481 104.961 16.5352C105.113 16.5224 105.237 16.5 105.337 16.4711C105.499 16.4198 105.623 16.3268 105.704 16.1986C105.785 16.0703 105.827 15.9004 105.827 15.6919V5.82548C105.827 5.61706 105.782 5.42467 105.691 5.2419C105.6 5.05913 105.483 4.91804 105.337 4.81543C105.233 4.7481 105.039 4.68397 104.76 4.62625C104.481 4.56853 104.257 4.53326 104.085 4.52364V3.97212L107.329 3.77332L107.452 3.90158V15.5925C107.452 15.7945 107.491 15.9613 107.565 16.0895C107.64 16.2178 107.763 16.3172 107.932 16.3877C108.062 16.4455 108.188 16.4871 108.311 16.516C108.434 16.5449 108.577 16.5641 108.733 16.5769V17.1477L108.736 17.1445Z" fill="#2E1B11"/>
<path d="M116.948 4.79941C116.948 5.05914 116.877 5.27718 116.737 5.45674C116.598 5.63631 116.384 5.72609 116.098 5.72609C115.917 5.72609 115.758 5.68761 115.621 5.61386C115.485 5.54011 115.356 5.4375 115.242 5.31245C115.125 5.1874 115.018 5.0431 114.918 4.87957C114.817 4.71925 114.733 4.58778 114.665 4.49158C114.276 4.50762 113.974 4.77696 113.76 5.29962C113.549 5.82229 113.442 6.65277 113.442 7.79109V8.66326H115.66V9.49374H113.442V15.6118C113.442 15.8138 113.481 15.9773 113.559 16.1056C113.637 16.2338 113.76 16.3268 113.929 16.391C114.068 16.4423 114.256 16.4839 114.49 16.516C114.723 16.5481 114.924 16.5705 115.093 16.5801V17.1509H110.549V16.5801C110.682 16.5673 110.822 16.5577 110.964 16.5449C111.107 16.532 111.23 16.5096 111.334 16.4743C111.496 16.423 111.619 16.33 111.697 16.2018C111.775 16.0735 111.814 15.9036 111.814 15.6951V9.49054H110.108V8.66005H111.814V8.11494C111.814 6.81951 112.154 5.76778 112.832 4.96615C113.51 4.16131 114.36 3.7605 115.378 3.7605C115.897 3.7605 116.286 3.8599 116.549 4.06191C116.812 4.26392 116.941 4.50762 116.941 4.7962L116.948 4.79941Z" fill="#2E1B11"/>
<path d="M128.974 11.5202C129.237 11.8088 129.428 12.1231 129.554 12.4662C129.681 12.8093 129.742 13.2069 129.742 13.6622C129.742 14.746 129.337 15.6374 128.526 16.3396C127.715 17.0419 126.71 17.3946 125.51 17.3946C124.955 17.3946 124.404 17.308 123.85 17.1413C123.295 16.9713 122.818 16.7661 122.416 16.5224L122.04 17.1541H121.339L121.216 12.9535H121.923C122.069 13.473 122.238 13.9412 122.436 14.358C122.63 14.7748 122.89 15.166 123.207 15.5284C123.509 15.8683 123.866 16.1376 124.271 16.3396C124.677 16.5416 125.147 16.641 125.682 16.641C126.084 16.641 126.434 16.5897 126.736 16.4839C127.038 16.3813 127.278 16.2338 127.466 16.0446C127.651 15.8554 127.79 15.631 127.881 15.3745C127.972 15.1179 128.017 14.8229 128.017 14.4895C128.017 13.9989 127.878 13.5435 127.599 13.1203C127.32 12.697 126.901 12.3764 126.35 12.1583C125.971 12.0076 125.536 11.8441 125.05 11.6613C124.56 11.4786 124.138 11.3086 123.781 11.1483C123.081 10.8373 122.539 10.43 122.15 9.9266C121.764 9.42318 121.57 8.76584 121.57 7.95139C121.57 7.48644 121.664 7.05036 121.858 6.64634C122.05 6.24232 122.325 5.88319 122.679 5.56574C123.016 5.26754 123.415 5.03025 123.875 4.86031C124.336 4.69036 124.816 4.60699 125.319 4.60699C125.89 4.60699 126.402 4.69357 126.853 4.86672C127.304 5.03987 127.715 5.24188 128.088 5.47275L128.448 4.88596H129.146L129.214 8.95503H128.507C128.377 8.49008 128.234 8.04117 128.075 7.6147C127.917 7.18824 127.706 6.80346 127.45 6.45715C127.2 6.12368 126.895 5.85753 126.532 5.65873C126.172 5.45993 125.727 5.36053 125.205 5.36053C124.651 5.36053 124.18 5.53688 123.791 5.88639C123.402 6.23911 123.204 6.66558 123.204 7.17221C123.204 7.67883 123.331 8.14057 123.58 8.49008C123.83 8.83959 124.197 9.12497 124.673 9.34943C125.098 9.55144 125.517 9.72459 125.928 9.87209C126.34 10.0196 126.736 10.1767 127.122 10.3434C127.472 10.4942 127.81 10.6641 128.131 10.8533C128.455 11.0425 128.734 11.2669 128.974 11.5202Z" fill="#2E1B11"/>
<path d="M137.464 16.7725C137.085 16.9264 136.728 17.0579 136.391 17.1669C136.054 17.2727 135.639 17.3272 135.149 17.3272C134.426 17.3272 133.92 17.1477 133.625 16.7885C133.329 16.4294 133.183 15.9196 133.183 15.2622V9.49051H131.627V8.66003H133.219V6.00824H134.808V8.66003H137.28V9.49051H134.825V14.2522C134.825 14.6081 134.837 14.9063 134.863 15.1468C134.889 15.3873 134.951 15.5957 135.052 15.7721C135.146 15.9388 135.285 16.0671 135.47 16.1536C135.655 16.2402 135.908 16.2819 136.222 16.2819C136.368 16.2819 136.582 16.2691 136.864 16.2434C137.147 16.2178 137.344 16.1857 137.461 16.144V16.7757L137.464 16.7725Z" fill="#2E1B11"/>
<path d="M139.099 19.9277C139.099 19.6391 139.18 19.4051 139.339 19.2223C139.498 19.0395 139.699 18.9497 139.936 18.9497C140.124 18.9497 140.283 18.985 140.416 19.0523C140.549 19.1229 140.669 19.2095 140.776 19.3217C140.863 19.4083 140.957 19.5269 141.055 19.6744C141.155 19.8251 141.233 19.947 141.291 20.0464C141.583 19.8924 141.93 19.4852 142.336 18.8279C142.741 18.1706 143.033 17.5966 143.215 17.0996C142.66 15.7336 142.161 14.5119 141.71 13.4345C141.262 12.3571 140.792 11.2445 140.302 10.0901C140.192 9.824 140.004 9.61878 139.744 9.47128C139.482 9.32378 139.219 9.23079 138.96 9.18911V8.61835H142.89V9.22438C142.715 9.23079 142.508 9.26606 142.261 9.3334C142.015 9.40074 141.895 9.47449 141.895 9.56106C141.895 9.59633 141.908 9.65405 141.934 9.73421C141.96 9.81438 141.989 9.89775 142.024 9.98432C142.245 10.5551 142.582 11.3759 143.04 12.4501C143.494 13.5243 143.847 14.3837 144.097 15.0282C144.36 14.4125 144.632 13.7744 144.914 13.1139C145.196 12.4533 145.514 11.6742 145.861 10.7763C145.903 10.6673 145.962 10.5166 146.036 10.3242C146.111 10.1318 146.15 9.96508 146.15 9.8272C146.15 9.6765 146.017 9.53862 145.754 9.40715C145.488 9.27889 145.235 9.19873 144.998 9.16987V8.61835H148.196V9.15383C148.021 9.18269 147.791 9.2821 147.505 9.45204C147.22 9.62199 147.006 9.86247 146.867 10.1735C146.172 11.7639 145.556 13.2133 145.018 14.5183C144.48 15.8266 144.071 16.7885 143.789 17.4042C143.422 18.209 143.095 18.8407 142.806 19.2928C142.517 19.7449 142.238 20.1009 141.963 20.3606C141.694 20.6011 141.45 20.7646 141.233 20.848C141.016 20.9314 140.789 20.973 140.555 20.973C140.101 20.973 139.744 20.8672 139.485 20.6524C139.226 20.4408 139.096 20.1939 139.096 19.9181L139.099 19.9277Z" fill="#2E1B11"/>
<path d="M152.957 17.1445H148.754V16.5737C148.887 16.5609 149.03 16.5481 149.182 16.5352C149.331 16.5224 149.458 16.5 149.558 16.4711C149.721 16.4198 149.844 16.3268 149.925 16.1986C150.006 16.0703 150.048 15.9004 150.048 15.6919V5.82548C150.048 5.61706 150.003 5.42467 149.912 5.2419C149.821 5.05913 149.704 4.91804 149.558 4.81543C149.455 4.7481 149.26 4.68397 148.981 4.62625C148.702 4.56853 148.478 4.53326 148.31 4.52364V3.97212L151.553 3.77332L151.673 3.90158V15.5925C151.673 15.7945 151.712 15.9613 151.787 16.0895C151.861 16.2178 151.984 16.3172 152.153 16.3877C152.283 16.4455 152.406 16.4871 152.532 16.516C152.659 16.5449 152.798 16.5641 152.957 16.5769V17.1477V17.1445Z" fill="#2E1B11"/>
<path d="M161.338 15.1404C160.975 15.8202 160.491 16.3621 159.888 16.7661C159.282 17.1702 158.584 17.3722 157.799 17.3722C157.105 17.3722 156.499 17.2503 155.977 17.0098C155.455 16.7693 155.026 16.4391 154.686 16.0254C154.349 15.6118 154.096 15.1276 153.93 14.5729C153.765 14.0182 153.681 13.4346 153.681 12.8189C153.681 12.2674 153.768 11.7223 153.946 11.19C154.125 10.6577 154.384 10.1767 154.728 9.75028C155.059 9.34305 155.471 9.01278 155.964 8.76267C156.457 8.51257 157.008 8.38751 157.621 8.38751C158.234 8.38751 158.789 8.48691 159.236 8.68251C159.684 8.87811 160.047 9.14746 160.329 9.48735C160.598 9.8112 160.796 10.1896 160.929 10.6289C161.059 11.0682 161.127 11.5427 161.127 12.0558V12.6265H155.419C155.419 13.1845 155.474 13.6911 155.581 14.1464C155.688 14.6017 155.86 15.0025 156.093 15.3456C156.321 15.6791 156.619 15.9421 156.985 16.1377C157.352 16.33 157.79 16.4262 158.296 16.4262C158.802 16.4262 159.262 16.3076 159.638 16.0671C160.015 15.8266 160.378 15.397 160.725 14.7749L161.338 15.1468V15.1404ZM159.408 11.8922C159.408 11.5684 159.379 11.2253 159.324 10.8565C159.269 10.4878 159.181 10.18 159.058 9.93305C158.925 9.66691 158.74 9.45207 158.506 9.28534C158.273 9.1186 157.971 9.03523 157.605 9.03523C156.995 9.03523 156.486 9.28854 156.081 9.79196C155.675 10.2954 155.455 10.9976 155.419 11.8954H159.405L159.408 11.8922Z" fill="#2E1B11"/>
<path fill-rule="evenodd" clip-rule="evenodd" d="M27.166 2.03219C27.6979 2.00013 28.2298 1.99051 28.7617 2.00975C28.3887 1.99692 28.1131 2.41377 28.3628 2.70877C28.6449 3.04545 29.232 3.10958 29.6374 3.02621C28.8817 3.18013 28.2039 2.86909 27.5228 2.58692C26.7412 2.25986 25.9628 2.14763 25.1163 2.25024C25.7942 2.15084 26.4817 2.07388 27.166 2.03219Z" fill="#2E1B11"/>
<path fill-rule="evenodd" clip-rule="evenodd" d="M47.0794 24.8049C46.6513 27.0462 45.7173 28.9477 45.714 28.9573C45.3346 29.7525 44.9162 30.4836 44.9129 30.4932C42.8957 33.8953 40.8946 35.303 40.1 35.9892C39.3865 36.5407 37.9692 37.493 36.646 38.1311C31.5931 40.5104 27.8342 40.0166 26.4947 39.9717C25.0677 39.7921 22.1424 39.5228 18.5359 37.4674C16.1684 36.1431 13.5251 33.6548 12.15 31.4936C9.56518 27.508 9.34788 24.6157 9.18896 23.9231C9.22464 24.0834 9.42248 24.186 9.57815 24.1636C9.82139 24.1283 9.97058 23.6954 9.97058 23.471C9.97058 23.6986 10.0744 23.8493 10.1619 24.0545C10.35 24.4874 10.7944 24.7151 11.0506 25.0967C11.2711 25.4237 11.4073 25.8021 11.4722 26.1901C11.4916 26.3023 11.5046 26.4177 11.5111 26.5332C11.5176 26.5973 11.4916 26.841 11.5306 26.8859C11.2808 26.4466 11.0862 25.8566 10.6062 25.5937C10.0873 25.4077 9.82463 25.7123 9.9122 26.2799C9.96085 26.5845 10.1263 26.8955 10.2917 27.152C10.4344 27.3701 10.6711 27.7196 10.9533 27.7581C11.096 27.7773 11.2322 27.6971 11.3133 27.5913C11.3295 27.5689 11.5079 27.2899 11.5241 27.3476C11.6149 27.6234 11.6538 27.8446 11.8062 28.1076C12.0981 28.6174 12.4776 29.0759 12.8635 29.5184C13.0484 29.7301 13.2268 29.9449 13.4214 30.1469C13.6257 30.3617 13.9273 30.5221 14.1122 30.7401C13.8949 30.4868 13.8203 29.8231 14.0635 29.4768C14.3035 29.092 14.8159 28.8002 15.4127 28.9445C16.243 29.1946 17.2743 30.1469 17.0667 31.2275C16.5316 30.7145 16.0873 30.0347 14.9911 30.1629C14.6311 30.2784 14.4138 30.5317 14.2613 30.8459C14.5695 31.1954 14.7089 31.6444 15.1467 31.949C15.5521 32.2344 15.8278 32.3883 16.2073 32.6352C16.3565 32.7314 16.6516 32.8436 16.8397 32.8628C16.9305 32.8724 17.0505 32.7698 17.1867 32.7474C17.4624 32.7025 17.6894 32.6961 17.9554 32.7474C18.8213 33.0264 19.6062 33.549 19.7651 34.6104C19.9694 34.7643 20.1964 34.8958 20.4948 34.9535C19.9856 32.2568 24.7985 33.3374 24.1888 35.2581C23.631 34.8124 22.2656 34.5302 21.5359 34.915C21.364 35.0048 21.0721 35.287 21.111 35.5242C21.1986 36.0052 22.5478 36.3355 23.3034 36.2489C23.738 35.8289 24.578 35.9218 25.3823 35.9828C25.2591 35.5787 25.0061 35.4024 25.0353 34.9182C25.1521 33.0873 29.1347 33.1193 29.112 35.1843C28.8753 35.226 28.5866 35.0753 28.3434 35.0336C27.1661 34.8348 26.0861 35.2581 25.8818 36.1367C26.5077 36.6337 27.4904 36.6625 28.152 36.4028C28.5542 36.2457 28.6936 35.9699 29.0407 35.9058C29.3455 35.8481 29.7023 36.0052 29.9001 35.8609C29.9228 35.8449 29.8515 35.3639 29.8482 35.3158C29.8482 35.1972 29.8547 35.0785 29.8839 34.9631C29.9293 34.7611 30.0266 34.5687 30.1434 34.3987C30.672 33.6484 31.8525 33.2668 32.7314 33.5426C33.0298 33.6356 33.3379 33.7863 33.5585 34.0108C33.5844 34.0364 33.8601 34.4468 33.8374 34.4533C34.7682 34.0492 36.033 33.1739 36.6882 32.6993C36.9703 32.4941 37.5022 32.0612 37.486 32.0259C37.366 31.7694 37.2298 31.1441 37.3076 30.8491C37.4471 30.3297 37.7617 29.8327 38.2092 29.5216C38.6535 29.2138 39.3638 29.1625 40.1065 29.2908C40.2233 29.1818 40.3692 28.999 40.486 28.7713C38.9941 27.6074 40.3141 24.7311 42.4481 25.2025C42.5876 24.962 42.6654 24.7407 42.7011 24.5323C42.7011 24.5195 42.5616 24.4008 42.5519 24.388C42.1011 23.907 41.9746 23.1471 42.1011 22.5186C42.1886 22.0922 42.3865 21.6593 42.7011 21.3514C42.7854 21.2713 42.8762 21.2007 42.9703 21.1366C43.0319 21.0949 43.6027 20.9154 43.6124 20.848C43.7551 19.9759 43.9692 18.3149 43.2686 17.0034C43.2265 16.9265 42.7173 16.609 42.6297 16.5288C42.4286 16.3397 42.247 16.1248 42.1108 15.8875C41.8805 15.4803 41.7314 14.9897 41.7703 14.5216C41.7897 14.3067 41.8384 14.124 41.9389 13.9348C41.9649 13.8867 42.3281 13.3384 42.3443 13.3544C42.2113 13.2037 42.0622 13.0754 41.9973 12.8606C42.9022 12.2385 42.0524 9.99718 41.2676 10.0838C40.713 10.1447 40.5379 11.0104 40.6514 11.4529C40.8006 12.0205 41.086 12.5303 41.5919 12.8766C40.2135 12.9953 38.8935 11.2413 39.4968 9.96832C39.646 9.7118 39.8665 9.5643 40.0352 9.58675C39.9897 9.37832 39.7206 9.29175 39.766 8.98072C39.7919 8.80756 39.8892 8.74023 39.9184 8.56066C40.006 8.07327 39.847 7.63398 39.6654 7.38708C39.4579 7.1017 39.1011 6.76501 38.7508 6.67523C38.2157 6.53735 37.9141 6.97344 37.9173 7.41914C37.9173 8.22718 38.7411 8.72099 39.1465 9.13142C38.8319 9.25968 38.5952 9.1218 38.4168 9.05447C37.9206 8.86849 37.4665 8.58631 37.1195 8.18229C36.899 7.92577 36.7109 7.60191 36.6979 7.25561C36.6817 6.85159 37.0157 6.3129 37.2006 6.22632C37.0482 6.10447 36.8341 6.09165 36.6849 5.86078C37.4211 5.83513 37.4017 5.16496 37.0255 4.7866C36.633 4.39219 35.313 3.61943 35.1282 4.3473C35.0341 4.72247 35.4298 5.11045 35.6828 5.3285C35.9747 5.5786 36.2017 5.65235 36.5584 5.84475C35.3779 5.98263 34.3595 5.34453 34.0287 4.34089C33.1044 4.07475 32.6666 3.33084 31.4115 3.39176C30.8666 3.53926 30.7174 3.69317 30.6785 4.07796C30.6201 4.70002 31.3304 5.03029 31.7196 5.3317C30.9736 5.37018 29.8936 4.94692 29.7574 4.26714C29.618 3.57133 30.179 3.44307 30.6785 3.20258C30.6882 3.0679 30.4969 3.12883 30.5261 2.97492C30.7304 2.88193 30.8731 2.80818 30.8731 2.59334C30.8731 2.36888 30.6136 2.32399 30.6428 2.16046C31.1617 2.22139 31.7714 2.33682 31.9823 2.3753C32.5044 2.4747 33.1595 2.63503 33.8114 2.82742C37.8914 4.02986 40.5606 6.44757 40.7324 6.59186C41.8124 7.51534 42.5227 8.29452 43.1324 9.02561C45.2924 11.6165 46.2005 14.2811 46.3529 14.6883C48.1626 19.5654 47.2059 24.1732 47.0697 24.8113L47.0794 24.8049ZM41.9616 7.94822C41.9519 8.00273 41.8773 7.99311 41.8481 8.02517C41.8157 8.2817 41.9649 8.36507 41.9259 8.63441C42.273 9.01278 42.38 9.63164 42.9638 9.77593C43.0546 8.90055 42.4222 8.40996 41.9616 7.95142V7.94822ZM45.0038 13.2358C45.3086 13.0177 44.9324 12.6714 45.0038 12.3219C44.7767 12.0622 44.754 11.6036 44.4265 11.4465C44.3194 12.1872 44.6405 12.8317 45.0038 13.2326V13.2358ZM43.927 16.7725C44.2027 16.7854 44.514 16.221 44.54 16.0863C44.5951 15.833 44.5789 15.4354 44.54 15.211C44.4557 14.7043 44.1346 14.2009 43.8881 14.031C42.9313 13.9925 43.2719 16.7405 43.927 16.7693V16.7725ZM45.8113 18.2187C45.3994 18.5778 45.2762 20.0688 45.6978 20.5402C46.1778 20.2067 46.2621 18.6708 45.8113 18.2187ZM44.6956 21.9831C44.647 21.9831 44.6438 21.935 44.5821 21.9447C44.1573 22.2044 43.7194 22.7751 43.6189 23.4293C43.567 23.7788 43.5638 24.3463 43.7357 24.6477C44.6405 24.5644 45.1075 22.9996 44.6956 21.9863V21.9831ZM41.3097 27.6907C41.3292 28.1044 41.0373 28.3833 41.2319 28.7553C42.3832 28.6238 43.074 27.7132 42.9994 26.2446C42.0492 26.1901 41.6924 27.0558 41.3065 27.6907H41.3097ZM45.1951 27.5368C45.3897 27.3605 45.7692 26.8089 45.5032 26.5492C45.4221 26.8763 45.1043 27.1649 45.1951 27.5368ZM13.457 30.7337C13.2527 30.211 12.523 29.3517 11.9554 29.403C11.2127 29.4703 11.8614 30.4163 12.1079 30.7337C12.39 31.0928 12.7241 31.2179 13.1846 31.3429C13.4505 31.1986 13.5738 31.0383 13.4538 30.7337H13.457ZM42.9249 31.3397C43.3627 31.1762 43.5086 30.7241 43.7324 30.3521C43.3562 30.4259 43.1 30.9421 42.9249 31.3397ZM39.9249 30.6183C39.2276 30.9453 38.6373 31.6764 38.54 32.5582C39.033 32.6544 39.4254 32.4813 39.7335 32.2568C40.2589 31.8688 40.5995 31.2435 40.6935 30.5445C40.4568 30.4098 40.1162 30.5317 39.9249 30.6215V30.6183ZM14.0668 32.9847C13.8949 32.8724 14.0408 33.0745 14.0765 33.1194C14.4851 33.658 15.0267 34.4565 15.9997 34.1839C15.9803 34.1903 15.7662 33.8761 15.7403 33.8472C15.6494 33.7318 15.5521 33.6228 15.4484 33.5202C15.2019 33.2701 14.9003 33.068 14.5403 33.0392C14.4527 33.0328 14.3684 33.0264 14.2808 33.0199C14.2224 33.0135 14.1154 33.0199 14.0635 32.9879L14.0668 32.9847ZM16.9954 34.5719C17.0019 34.8477 17.7964 35.3479 18.1856 35.4858C18.6981 35.6653 19.6678 35.6204 19.6483 35.0657C19.6451 34.9054 19.337 34.62 19.1489 34.4949C18.6981 34.1967 18.1078 33.9691 17.4559 34.1518C17.3165 34.1903 16.9889 34.3378 16.9954 34.5687V34.5719ZM35.8838 35.9058C36.9217 35.9026 37.6449 35.2645 38.0373 34.4981C37.0125 34.5142 36.1628 35.0272 35.8838 35.9058ZM32.1477 35.0208C31.6806 35.21 31.2655 35.5274 31.0515 35.9154C31.032 35.9475 30.8796 36.3547 30.9217 36.3611C32.3585 36.5631 33.4158 36.0661 33.7693 35.0689C33.7887 35.0112 33.5325 34.9086 33.5001 34.899C33.0914 34.7835 32.5952 34.8445 32.1509 35.024L32.1477 35.0208ZM21.458 37.6149C21.0234 37.6598 20.3164 37.1756 20.1121 37.6918C20.5694 37.9612 21.3834 38.2434 22.0742 38.0349C21.9997 37.7688 21.6137 37.8041 21.458 37.6149ZM33.8471 38.3396C34.139 38.2337 34.4536 38.1536 34.6547 37.958C34.3239 38.0253 33.9866 38.083 33.8471 38.3396ZM24.1499 38.4903C24.6883 38.673 26.0764 38.9103 26.4201 38.378C25.9466 37.99 24.4677 37.8938 24.1499 38.4903ZM28.7682 38.7564C29.5336 38.952 30.4904 38.7211 30.8471 38.2626C30.0136 38.1375 29.138 38.2947 28.7682 38.7564Z" fill="#2E1B11"/>
<path fill-rule="evenodd" clip-rule="evenodd" d="M24.7012 2.3208C24.6591 2.32721 24.5812 2.44585 24.5618 2.48113C24.5293 2.54205 24.5196 2.60939 24.5358 2.67672C24.578 2.83384 24.7531 2.91721 24.8958 2.9621C25.0482 3.00699 25.2039 3.01982 25.3596 3.04227C25.0612 3.00699 24.7628 3.08716 24.4645 3.1064C24.312 3.11602 24.1564 3.1064 24.0072 3.06151C23.6893 2.95569 23.4331 2.81781 23.0893 2.93966C22.8266 3.03585 22.5931 3.19618 22.3207 3.26672C22.0191 3.34368 21.698 3.31803 21.3931 3.38216C21.1629 3.43346 20.9391 3.5008 20.7121 3.56493C20.4753 3.63226 20.2386 3.71243 20.0148 3.81504C20.4072 3.63547 20.8061 3.46873 21.2115 3.31161C21.9121 3.04227 22.6288 2.8114 23.3585 2.62221C23.5693 2.5677 23.7801 2.5164 23.9909 2.4683C24.2245 2.41379 24.4645 2.35287 24.7012 2.32401V2.3208Z" fill="#2E1B11"/>
<path fill-rule="evenodd" clip-rule="evenodd" d="M27.7239 3.11921C27.1823 3.4591 26.3001 3.4591 26.0699 4.10682C25.9985 4.71926 26.3488 4.92127 26.6472 5.17138C26.0245 5.26758 25.3856 4.87638 25.3012 4.41144C25.1066 3.35329 26.6699 3.03584 27.7239 3.11921Z" fill="#2E1B11"/>
<path fill-rule="evenodd" clip-rule="evenodd" d="M23.7121 3.48475C23.9326 3.53285 24.2407 3.74768 23.9164 3.66111C23.6894 3.60018 23.4526 3.61942 23.2191 3.64187C22.5964 3.69959 22.0224 4.16453 21.698 4.66475C21.5975 4.82187 21.578 5.02388 21.6072 5.20344C21.617 5.25795 21.6299 5.30284 21.6624 5.34773C21.6851 5.3798 21.7986 5.51768 21.8343 5.51768C21.4451 5.52409 21.1629 5.30605 21.1045 5.06235C21.0137 4.69361 21.2018 4.38257 21.471 4.14209C21.7434 3.89839 22.0191 3.7573 22.3564 3.62584C22.4667 3.58415 22.6451 3.52643 22.7586 3.50078C23.0894 3.42703 23.3326 3.40779 23.7088 3.48475H23.7121Z" fill="#2E1B11"/>
<path fill-rule="evenodd" clip-rule="evenodd" d="M20.3002 4.41145C20.2386 4.47237 20.0537 4.43069 20.0148 4.43389C18.617 4.54291 17.7673 5.21949 17.8386 6.31291C17.7413 6.47965 17.5694 6.39628 17.5532 6.22633C17.5435 6.1141 17.5662 5.98264 17.5857 5.87362C17.6051 5.76459 17.6343 5.65878 17.6797 5.55938C17.8873 5.10085 18.3024 4.7353 18.75 4.51085C18.8765 4.44672 19.0127 4.39221 19.1489 4.35052C19.3954 4.27357 19.6516 4.21906 19.911 4.21906C20.0083 4.21906 20.1121 4.22547 20.2029 4.25753C20.2613 4.27998 20.3456 4.31525 20.3035 4.40824L20.3002 4.41145Z" fill="#2E1B11"/>
<path fill-rule="evenodd" clip-rule="evenodd" d="M30.0039 5.40221C29.7671 5.49841 29.472 5.5433 29.2385 5.65232C28.7585 5.87357 28.2072 6.34172 28.2623 6.96058C28.3207 7.57943 28.6872 7.8584 28.992 8.21432C28.298 8.16302 27.6428 7.66601 27.4515 7.0728C27.3899 6.87721 27.3801 6.56617 27.4223 6.36737C27.4677 6.15574 27.6331 5.93128 27.7888 5.78058C28.1261 5.45031 28.632 5.34449 29.0893 5.33487C29.3942 5.32846 29.699 5.36694 30.0007 5.40221H30.0039Z" fill="#2E1B11"/>
<path fill-rule="evenodd" clip-rule="evenodd" d="M25.645 5.55296C25.645 5.65236 25.2721 5.63312 25.1067 5.66839C24.1953 5.85437 23.4461 6.33214 23.3359 7.30372C23.297 7.72377 23.5402 7.96426 23.7218 8.21757C23.2094 8.21436 22.7521 7.74942 22.684 7.26524C22.5024 5.98584 24.4256 5.10405 25.645 5.55296Z" fill="#2E1B11"/>
<path fill-rule="evenodd" clip-rule="evenodd" d="M17.1056 5.55297C17.0635 5.77743 16.684 6.18145 16.2527 6.61433C16.097 6.77145 15.0624 7.50895 14.7803 7.42878C14.7186 7.2877 15.1338 7.22036 16.0613 6.47966C16.6159 5.95379 16.7489 5.77743 17.0148 5.55297C17.0829 5.50488 17.1186 5.53053 17.1056 5.55297Z" fill="#2E1B11"/>
<path fill-rule="evenodd" clip-rule="evenodd" d="M34.5282 5.72609C34.1455 5.79342 33.7888 6.04033 33.5909 6.2231C33.205 6.58223 33.2407 7.16581 33.4709 7.57945C33.6947 7.97706 34.1034 8.20472 34.418 8.52217C33.9055 8.49652 33.4093 8.32978 33.0007 8.01875C32.618 7.73016 32.2547 7.33576 32.232 6.83554C32.2126 6.39304 32.4591 5.99864 32.8677 5.82228C33.0882 5.72929 33.3704 5.66196 33.6072 5.65554C33.8634 5.64913 34.272 5.67158 34.525 5.72609H34.5282Z" fill="#2E1B11"/>
<path fill-rule="evenodd" clip-rule="evenodd" d="M21.4937 6.13974C20.7542 5.88322 19.8883 6.39946 19.3921 6.91571C19.084 7.23636 18.818 7.81674 18.8861 8.26566C18.9121 8.43881 18.9088 8.66968 18.951 8.78832C18.9705 8.83962 18.7759 8.64723 18.7142 8.55104C18.6364 8.42598 18.5553 8.29772 18.5197 8.15663C18.3997 7.72696 18.3737 7.29408 18.7142 6.82593C18.9413 6.5149 19.2656 6.22631 19.6159 6.05637C20.2191 5.76137 20.965 5.61066 21.4937 6.13974Z" fill="#2E1B11"/>
<path fill-rule="evenodd" clip-rule="evenodd" d="M17.6052 6.99905C16.1944 7.23954 15.3576 8.16622 15.1047 9.4328C14.6247 9.07046 15.069 7.99307 15.643 7.53133C15.7792 7.42231 15.8117 7.35498 15.9706 7.24275C16.2982 7.00547 17.229 6.4796 17.6052 6.99905Z" fill="#2E1B11"/>
<path fill-rule="evenodd" clip-rule="evenodd" d="M28.071 8.67288C26.8029 8.74983 25.9466 9.23722 25.6094 10.2312C25.4731 11.0265 25.9304 11.4369 26.031 11.8666C25.0613 11.5235 24.6202 10.4685 24.9931 9.54505C25.3531 8.64723 27.1239 7.97386 28.071 8.66967V8.67288Z" fill="#2E1B11"/>
<path fill-rule="evenodd" clip-rule="evenodd" d="M33.0039 8.89413C31.9207 8.84282 31.272 9.2276 30.9931 9.92662C30.7401 11.02 31.2655 11.5427 31.5315 12.0173C30.912 11.8281 30.2958 11.4337 30.0688 10.8373C29.6796 9.81119 30.2666 8.91337 31.0677 8.55424C31.6807 8.32016 32.1282 8.36505 32.6342 8.54141C32.7477 8.60233 32.8807 8.71136 33.0007 8.89092L33.0039 8.89413Z" fill="#2E1B11"/>
<path fill-rule="evenodd" clip-rule="evenodd" d="M23.378 8.97749C23.0277 9.00314 22.7715 8.95825 22.4148 9.01276C21.0753 9.2276 20.0472 10.7924 20.7996 11.982C20.164 11.7479 19.9823 11.081 20.0991 10.212C20.2288 9.54825 20.8775 8.89412 21.6461 8.71135C22.1812 8.58309 23.1477 8.62477 23.378 8.97749Z" fill="#2E1B11"/>
<path fill-rule="evenodd" clip-rule="evenodd" d="M37.4179 9.24366C36.5325 9.3655 35.9682 9.95871 36.072 10.9175C36.1466 11.6229 36.6687 11.9467 36.9963 12.3251C35.9487 12.1872 35.2936 11.5427 34.9952 10.9175C34.5217 9.76632 35.5401 8.68893 36.6849 8.86208C36.899 8.89415 37.3044 8.9711 37.4179 9.24366Z" fill="#2E1B11"/>
<path fill-rule="evenodd" clip-rule="evenodd" d="M18.9511 9.58354C17.1835 9.50658 16.1392 10.4461 16.1814 12.2834C15.7565 12.0141 15.7598 11.3343 15.9122 10.7988C16.2463 9.63164 18.0949 8.54783 18.9511 9.58033V9.58354Z" fill="#2E1B11"/>
<path fill-rule="evenodd" clip-rule="evenodd" d="M15.1435 10.4589C14.7056 10.398 14.2256 10.491 13.8851 10.7731C13.5186 11.081 13.2202 11.4914 13.0127 11.9179C12.9478 12.0525 12.9154 12.1968 12.8927 12.3475C12.8732 12.479 12.8797 12.6393 12.7986 12.7516C12.7792 12.7772 12.6916 12.851 12.6429 12.8157C12.3738 12.6329 12.5035 12.0654 12.6267 11.7255C12.8116 11.2124 13.0386 10.8822 13.3694 10.5711C13.7132 10.2473 14.3197 10.0196 14.8743 10.0773C15.0591 10.1318 15.1467 10.2409 15.1435 10.4589Z" fill="#2E1B11"/>
<path fill-rule="evenodd" clip-rule="evenodd" d="M25.7618 12.7804C24.0494 12.5367 22.6061 13.3993 22.8396 15.4418C22.8494 15.6342 22.9175 15.7849 22.9921 15.8972C22.7359 15.8972 22.4732 15.5188 22.3888 15.32C22.2688 15.0378 22.2137 14.7076 22.2137 14.3997C22.204 13.332 23.0505 12.3764 24.1077 12.2065C24.7953 12.0942 25.431 12.4053 25.7618 12.7772V12.7804Z" fill="#2E1B11"/>
<path fill-rule="evenodd" clip-rule="evenodd" d="M30.8763 12.6265C30.5477 12.6265 30.3044 12.6393 30.1466 12.665C29.1866 12.8061 28.3661 13.5949 28.2234 14.4895C28.1131 15.1853 28.4731 15.5412 28.6482 16.0863C28.0061 15.9196 27.6136 15.2719 27.4418 14.7749C27.1077 13.4827 28.3109 11.9147 30.072 12.2065C30.3509 12.2546 30.6752 12.4181 30.8796 12.6265H30.8763Z" fill="#2E1B11"/>
<path fill-rule="evenodd" clip-rule="evenodd" d="M35.8417 12.7804C34.765 12.867 34.058 13.3223 33.7661 14.1881C33.6623 14.6562 33.7109 14.9095 33.7661 15.2174C33.8504 15.6983 34.1099 15.9004 34.3044 16.3204C33.2958 15.942 32.4234 15.1148 32.6893 13.6943C32.9163 12.4694 34.8039 11.8858 35.845 12.7804H35.8417Z" fill="#2E1B11"/>
<path fill-rule="evenodd" clip-rule="evenodd" d="M20.952 13.1203C19.1748 12.6682 17.6472 13.7713 17.8742 15.8972C17.4883 15.6054 17.3553 14.9031 17.4526 14.3388C17.7056 12.8542 19.8072 11.7832 20.952 13.1203Z" fill="#2E1B11"/>
<path fill-rule="evenodd" clip-rule="evenodd" d="M40.2654 13.2358C39.1206 13.3384 38.6536 14.5152 38.9941 15.631C39.1173 15.9934 39.406 16.3172 39.5325 16.6218C38.4006 16.4615 37.379 15.3585 37.6093 13.9604C37.6968 13.4121 38.0828 13.1235 38.4946 12.8221C38.9973 12.556 40.0027 12.7003 40.2654 13.239V13.2358Z" fill="#2E1B11"/>
<path fill-rule="evenodd" clip-rule="evenodd" d="M16.5284 13.6943C14.8452 13.0915 13.7684 14.5023 13.7198 16.0511C13.4571 15.8811 13.4441 15.4386 13.4408 15.1629C13.4311 14.0438 14.7381 12.4566 16.1035 13.162C16.2884 13.2967 16.5154 13.3865 16.5251 13.6943H16.5284Z" fill="#2E1B11"/>
<path fill-rule="evenodd" clip-rule="evenodd" d="M12.9511 14.3773C11.9035 13.8867 11.3911 14.7973 10.989 15.5958C10.8657 15.9004 10.843 16.0511 10.7198 16.3942C10.6128 16.1216 10.616 15.8074 10.6679 15.5156C10.6809 15.4258 10.6744 15.3841 10.7036 15.2559C10.9014 14.3613 11.5695 13.5244 12.6073 13.7328C12.8506 13.8675 13.0387 13.9925 12.9543 14.3805L12.9511 14.3773Z" fill="#2E1B11"/>
<path fill-rule="evenodd" clip-rule="evenodd" d="M8.99443 21.4893C8.97497 21.3803 8.96524 21.2681 8.95875 21.159C8.92956 20.6652 8.99118 20.1522 9.03334 19.6584C9.07551 19.1806 9.13064 18.7029 9.19226 18.2283C9.22469 17.9718 9.26037 17.7153 9.29929 17.4587C9.44848 16.6186 9.99982 14.8358 10.1458 14.4927C10.175 14.4254 10.4377 14.7236 10.4571 14.7653C10.5122 14.8775 10.6387 15.1532 10.4214 15.1789C10.3209 15.1917 10.2658 15.1244 10.1912 15.2398C10.0614 15.4547 10.1133 15.7304 10.0971 15.9677C10.055 16.593 9.78901 17.1766 9.75982 17.8018C9.76631 17.6319 10.1036 17.3786 10.4539 17.3818C10.8722 17.385 11.2809 18.0872 11.0701 18.5618C10.1977 17.1509 9.08199 19.7482 9.76307 20.6171C9.56523 21.3514 9.70469 22.2749 9.99333 22.8232C9.98036 22.8008 9.76955 22.7559 9.73388 22.7367C9.61064 22.6693 9.50361 22.5731 9.41604 22.4641C9.18578 22.1883 9.05605 21.8452 8.99767 21.4925L8.99443 21.4893Z" fill="#2E1B11"/>
<path fill-rule="evenodd" clip-rule="evenodd" d="M28.6094 17.2311C28.0288 17.1189 27.4905 17.0579 26.9553 17.2311C26.2516 17.4555 25.6224 18.1161 25.457 18.7894C25.2656 19.5718 25.3597 19.8604 25.5705 20.3478C24.9121 19.9855 24.51 19.2512 24.6851 18.1802C24.7208 17.9686 24.8797 17.5966 24.9932 17.4203C25.4408 16.7341 26.3359 16.2691 27.4126 16.3942C27.9705 16.4679 28.4667 16.7533 28.6094 17.2311Z" fill="#2E1B11"/>
<path fill-rule="evenodd" clip-rule="evenodd" d="M33.8017 17.1926C31.6612 16.8174 30.4904 18.7766 31.3401 20.5402C30.6266 20.46 30.2017 19.668 30.072 18.9818C29.8677 17.4107 31.2168 16.2371 32.6503 16.4711C33.0947 16.5449 33.5811 16.7661 33.8049 17.1926H33.8017Z" fill="#2E1B11"/>
<path fill-rule="evenodd" clip-rule="evenodd" d="M23.4137 17.4588C23.3975 17.4299 23.0342 17.308 22.9758 17.2856C22.6904 17.1766 22.178 17.2375 21.8764 17.2728C21.5748 17.3113 21.2861 17.4042 21.0299 17.571C20.5499 17.882 20.2386 18.3854 20.1283 18.937C20.0569 19.3025 20.0375 19.7097 20.0667 20.0817C19.7391 19.854 19.6126 19.7322 19.5283 19.3891C19.418 18.8279 19.5121 18.5137 19.6061 18.1033C19.9759 16.4776 22.6061 15.894 23.4137 17.4555V17.4588Z" fill="#2E1B11"/>
<path fill-rule="evenodd" clip-rule="evenodd" d="M38.647 17.2664C38.3357 17.369 38.1281 17.3337 37.9173 17.3818C36.5616 17.6768 36.1789 19.5366 36.9151 20.7294C36.0265 20.6396 35.4233 19.7482 35.3 18.8279C35.287 18.7253 35.287 18.5874 35.3 18.4848C35.42 17.4331 36.3022 16.4198 37.5703 16.6219C37.9984 16.6892 38.42 16.9201 38.647 17.2696V17.2664Z" fill="#2E1B11"/>
<path fill-rule="evenodd" clip-rule="evenodd" d="M18.5294 17.8018C17.991 17.4972 17.4105 17.2567 16.684 17.5357C16.1651 17.7345 15.7986 18.1962 15.6073 18.6002C15.4905 18.8696 15.5164 18.9914 15.4548 19.171C15.4451 19.4018 15.4873 19.684 15.4159 19.8572C14.9846 19.5814 15.0689 18.7894 15.1467 18.411C15.3543 17.3978 16.2008 16.532 17.4948 16.7757C17.5921 16.795 17.7997 16.8783 17.8807 16.9264C18.1532 17.0964 18.4645 17.4459 18.5359 17.8018H18.5294Z" fill="#2E1B11"/>
<path fill-rule="evenodd" clip-rule="evenodd" d="M42.766 17.4587C42.8406 17.6126 42.7206 17.587 42.6103 17.5806C41.9357 17.5453 41.5173 18.4271 41.4298 18.969C41.3195 19.6456 41.4557 20.367 41.7638 20.8448C39.62 20.9699 39.2925 16.3365 42.0719 16.9265C42.3638 16.9874 42.6362 17.1926 42.7627 17.4587H42.766Z" fill="#2E1B11"/>
<path fill-rule="evenodd" clip-rule="evenodd" d="M14.336 18.1802C14.3036 17.9044 13.8301 17.8114 13.6225 17.7633C13.2463 17.6736 12.8798 17.7633 12.5847 18.0199C12.3836 18.193 12.1922 18.4143 12.0593 18.6419C11.923 18.876 11.8874 19.1485 11.816 19.4051C11.8063 19.4403 11.7349 19.9117 11.7155 19.854C11.2971 18.6547 12.0301 16.8046 13.4863 17.0771C13.989 17.1701 14.2809 17.6928 14.3328 18.177L14.336 18.1802Z" fill="#2E1B11"/>
<path fill-rule="evenodd" clip-rule="evenodd" d="M20.991 22.3262C20.9683 22.23 20.7089 22.0921 20.631 22.0665C20.0926 21.8805 19.5932 21.7426 19.0159 21.9126C18.4354 22.0825 17.9878 22.5411 17.7835 23.099C17.6635 23.4325 17.5694 23.8365 17.5662 24.1924C16.8559 23.0316 17.43 21.3033 18.5294 21.0372C19.6483 20.7646 20.7413 21.3226 20.991 22.3294V22.3262Z" fill="#2E1B11"/>
<path fill-rule="evenodd" clip-rule="evenodd" d="M26.1835 22.214C24.4678 21.2809 22.3338 22.3358 22.6451 24.5708C22.1554 24.1732 21.9186 23.4453 22.0678 22.5956C22.204 21.81 22.9597 21.2777 23.5694 21.034C24.3705 20.848 25.0224 21.0019 25.5316 21.3386C25.8105 21.5246 26.1608 21.8741 26.1835 22.214Z" fill="#2E1B11"/>
<path fill-rule="evenodd" clip-rule="evenodd" d="M31.4536 22.0408C30.8763 21.8324 30.3574 21.733 29.7217 21.9446C28.8331 22.2749 28.019 23.1952 28.2201 24.4938C28.2461 24.6702 28.2428 24.7151 28.3369 24.9491C27.8861 24.7632 27.6915 24.3174 27.4515 23.923C26.978 22.6917 27.805 21.2937 28.9531 21.034C30.0525 20.7871 31.0482 21.3001 31.4536 22.0408Z" fill="#2E1B11"/>
<path fill-rule="evenodd" clip-rule="evenodd" d="M36.5324 21.8709C34.8752 21.3996 33.1919 23.0317 34.0319 25.1031C33.4546 25.0165 33.0719 24.4073 32.8384 23.8493C32.699 23.3684 32.7736 23.022 32.8384 22.6309C32.9682 21.8741 33.7141 21.1751 34.3011 21.034C35.2741 20.7999 36.2276 21.143 36.5324 21.8709Z" fill="#2E1B11"/>
<path fill-rule="evenodd" clip-rule="evenodd" d="M41.1119 21.7555C40.6384 21.7651 40.1778 21.9735 39.8049 22.2878C39.1303 22.8553 38.9843 24.0193 39.2665 25.0261C38.4265 24.9941 37.7649 24.1892 37.7649 23.4678C37.7325 22.1691 38.2871 21.4476 39.1498 21.034C39.9606 20.7294 40.8524 21.1174 41.1119 21.7587V21.7555Z" fill="#2E1B11"/>
<path fill-rule="evenodd" clip-rule="evenodd" d="M12.643 22.7078C12.2603 22.4256 12.1306 21.8933 11.5274 21.8324C10.8366 21.9094 10.6225 22.4609 10.4506 23.0477C10.2139 22.012 10.4798 20.8223 11.7576 21.0308C12.2539 21.0981 12.5652 21.9318 12.643 22.7046V22.7078Z" fill="#2E1B11"/>
<path fill-rule="evenodd" clip-rule="evenodd" d="M16.3759 22.5154C16.1067 22.3871 15.8927 22.0601 15.5683 21.9446C14.67 21.6913 13.7132 22.0568 13.6062 22.9322C13.5478 23.0477 13.6062 23.2753 13.5316 23.5415C12.8051 22.5763 13.4765 20.7582 15.1824 21.0308C15.9121 21.2841 16.2299 21.7715 16.3759 22.5154Z" fill="#2E1B11"/>
<path fill-rule="evenodd" clip-rule="evenodd" d="M14.6441 27.043C14.3036 26.5845 13.7652 25.8662 12.9901 25.94C12.7793 25.9592 12.5425 26.1003 12.3933 26.2478C12.3317 26.3087 12.1403 26.8153 12.1436 26.8153C11.9652 26.6871 11.8809 26.0618 11.9133 25.863C12.0236 25.1928 12.643 24.6958 13.4895 24.9876C14.0928 25.1961 14.6182 26.2574 14.6441 27.043Z" fill="#2E1B11"/>
<path fill-rule="evenodd" clip-rule="evenodd" d="M18.8375 27.12C18.497 26.9372 18.231 26.5107 17.7997 26.36C17.7024 26.3247 17.3165 26.2478 17.2613 26.2478C17.0797 26.235 16.7294 26.2831 16.5316 26.36C15.977 26.5749 15.6657 27.043 15.5684 27.6907C15.4581 27.5593 15.3251 27.1649 15.2992 26.9693C15.1986 26.2446 15.7208 25.4526 16.1846 25.2955C16.817 25.0806 17.631 25.3468 17.991 25.6001C18.4743 25.94 18.8927 26.6614 18.8375 27.1232V27.12Z" fill="#2E1B11"/>
<path fill-rule="evenodd" clip-rule="evenodd" d="M38.9552 26.3215C37.2525 26.4433 36.2503 27.4438 36.3768 29.249C35.3649 28.9829 34.9563 27.7933 35.3001 26.7768C35.4201 26.4177 35.9228 25.8501 36.2601 25.6353C36.5001 25.4846 36.5941 25.3788 37.0676 25.2922C38.0698 25.2666 38.6892 25.6161 38.9519 26.3183L38.9552 26.3215Z" fill="#2E1B11"/>
<path fill-rule="evenodd" clip-rule="evenodd" d="M23.7218 27.0045C23.7088 26.8923 23.1867 26.6871 23.0926 26.6486C22.7878 26.5235 22.457 26.4498 22.1261 26.453C21.4548 26.4594 20.8191 26.8057 20.4981 27.3925C20.4267 27.524 20.0537 28.4186 20.1835 28.5244C19.7845 28.1973 19.5737 27.5304 19.7618 26.7736C20.0375 25.8341 20.8808 25.2313 22.1456 25.4429C22.9434 25.5776 23.6407 26.3087 23.7218 27.0013V27.0045Z" fill="#2E1B11"/>
<path fill-rule="evenodd" clip-rule="evenodd" d="M34.1877 26.6262C33.9315 26.6262 33.3185 26.453 32.8774 26.5716C32.1445 26.7704 31.4245 27.2258 31.1488 27.8799C31.1196 27.9504 31.0807 28.0306 31.0547 28.1236C31.0191 28.2615 31.0093 28.3801 30.9931 28.4891C30.9574 28.7553 30.9607 28.9316 30.9931 29.2491C30.5196 29.0599 30.2796 28.6366 30.0688 28.1845C29.5175 25.4526 33.3185 24.5419 34.1844 26.6262H34.1877Z" fill="#2E1B11"/>
<path fill-rule="evenodd" clip-rule="evenodd" d="M28.9921 26.8891C27.3186 26.0394 25.3045 26.9789 25.4148 29.0182C24.7889 28.595 24.591 27.6619 24.8375 26.7737C25.2332 26.049 26.057 25.3564 27.1467 25.4815C28.0288 25.5809 28.7294 26.1548 28.9921 26.8891Z" fill="#2E1B11"/>
<path fill-rule="evenodd" clip-rule="evenodd" d="M21.5683 31.4937C20.8873 30.7433 18.9284 30.1373 18.3932 31.4167C18.3057 31.6476 18.2505 31.7245 18.2408 32.0035C17.5857 31.4937 17.6538 30.3169 18.1467 29.8583C19.4375 28.797 21.5975 29.977 21.5716 31.4937H21.5683Z" fill="#2E1B11"/>
<path fill-rule="evenodd" clip-rule="evenodd" d="M36.4935 30.8844C34.7941 30.7625 33.62 31.4583 33.5714 33.0905C32.9973 33.1097 32.5563 32.3209 32.5336 32.0259C32.4817 31.6539 32.4849 31.5417 32.5336 31.2659C32.8222 29.6274 35.9616 28.7104 36.4968 30.8844H36.4935Z" fill="#2E1B11"/>
<path fill-rule="evenodd" clip-rule="evenodd" d="M26.4916 31.4552C25.2754 30.5445 23.0894 30.9421 22.9532 32.6352C22.5608 32.5807 22.3694 32.0516 22.337 31.8848C22.2819 31.4423 22.3273 31.282 22.3759 31.0383C22.7748 28.9733 26.5467 29.5633 26.4916 31.4552Z" fill="#2E1B11"/>
<path fill-rule="evenodd" clip-rule="evenodd" d="M31.5704 31.2275C31.4893 31.3494 31.3401 31.1249 31.071 31.0768C29.4948 30.769 28.4083 31.6123 28.2623 33.0552C27.6234 32.7987 27.2959 32.135 27.4548 31.2692C27.5813 30.5734 28.2267 30.0956 28.7618 29.8776C29.3326 29.682 29.7542 29.7365 30.2245 29.8519C30.8991 30.0122 31.5704 30.5574 31.5737 31.2307L31.5704 31.2275Z" fill="#2E1B11"/>
<path fill-rule="evenodd" clip-rule="evenodd" d="M14.2679 8.12775C14.2744 8.35541 13.989 8.82997 13.6581 9.33981C13.5381 9.52579 12.6819 10.4589 12.3868 10.4364C12.296 10.3114 12.6884 10.1607 13.4408 9.24682C13.8722 8.62155 13.9662 8.41954 14.1771 8.14378C14.2354 8.08286 14.2711 8.09889 14.2646 8.12454L14.2679 8.12775Z" fill="#2E1B11"/>
<path fill-rule="evenodd" clip-rule="evenodd" d="M11.9554 11.0233C12.0138 11.2445 11.8387 11.7704 11.6311 12.3411C11.5565 12.5464 10.9306 13.6462 10.6387 13.6911C10.5219 13.5885 10.8722 13.3544 11.4009 12.2995C11.683 11.594 11.7284 11.3792 11.8744 11.065C11.9165 10.9912 11.9587 11.0008 11.9587 11.0265L11.9554 11.0233Z" fill="#2E1B11"/>
</g>
</g>
<defs>
<clipPath id="clip0_1388_4991">
<rect width="155" height="39" fill="white" transform="translate(8 2)"/>
</clipPath>
<clipPath id="clip1_1388_4991">
<rect width="153.735" height="38.0488" fill="white" transform="translate(8.94897 2)"/>
</clipPath>
</defs>
</svg>
